<svg width="94" height="99" viewBox="0 0 94 99" fill="none" xmlns="http://www.w3.org/2000/svg">
<g id="Vector">
<path d="M33.8334 32.8158C33.8334 41.7465 26.2595 48.9862 16.9167 48.9862C7.57386 48.9862 0 41.7465 0 32.8158C0 23.8852 7.57386 16.6455 16.9167 16.6455C26.2595 16.6455 33.8334 23.8852 33.8334 32.8158Z" fill="#BCBCFF"/>
<path d="M136.66 32.8158C136.66 41.7465 129.087 48.9862 119.744 48.9862C110.401 48.9862 102.827 41.7465 102.827 32.8158C102.827 23.8852 110.401 16.6455 119.744 16.6455C129.087 16.6455 136.66 23.8852 136.66 32.8158Z" fill="#BCBCFF"/>
<path d="M16.5848 16.6455H120.075V48.9862H16.5848V16.6455Z" fill="#BCBCFF"/>
<path d="M68.3303 -0.159256C58.9875 -0.159256 51.4136 -7.39898 51.4136 -16.3296C51.4136 -25.2603 58.9875 -32.5 68.3303 -32.5C77.6731 -32.5 85.247 -25.2603 85.247 -16.3296C85.247 -7.39898 77.6731 -0.159252 68.3303 -0.159256Z" fill="#BCBCFF"/>
<path d="M68.3305 98.1307C58.9877 98.1307 51.4138 90.891 51.4138 81.9604C51.4138 73.0297 58.9877 65.79 68.3305 65.79C77.6733 65.79 85.2472 73.0297 85.2472 81.9604C85.2472 90.891 77.6733 98.1307 68.3305 98.1307Z" fill="#BCBCFF"/>
<path d="M85.2472 -16.6463V82.2783H51.4138L51.4138 -16.6463L85.2472 -16.6463Z" fill="#BCBCFF"/>
<path d="M92.7228 9.49952C86.1164 3.1846 86.1164 -7.05392 92.7228 -13.3688C99.3292 -19.6838 110.04 -19.6838 116.647 -13.3688C123.253 -7.05392 123.253 3.1846 116.647 9.49952C110.04 15.8144 99.3292 15.8144 92.7228 9.49952Z" fill="#BCBCFF"/>
<path d="M20.0135 79.002C13.4071 72.6871 13.4071 62.4486 20.0135 56.1336C26.6199 49.8187 37.3309 49.8187 43.9373 56.1336C50.5437 62.4486 50.5437 72.6871 43.9373 79.002C37.3309 85.3169 26.6199 85.3169 20.0135 79.002Z" fill="#BCBCFF"/>
<path d="M116.882 9.2749L43.7028 79.2252L19.779 56.3568L92.9577 -13.5935L116.882 9.2749Z" fill="#BCBCFF"/>
<path d="M92.7234 56.1314C99.3297 49.8164 110.041 49.8164 116.647 56.1314C123.254 62.4463 123.254 72.6848 116.647 78.9997C110.041 85.3147 99.3297 85.3147 92.7234 78.9997C86.117 72.6848 86.117 62.4463 92.7234 56.1314Z" fill="#BCBCFF"/>
<path d="M20.0135 -13.3701C26.6198 -19.6851 37.3309 -19.6851 43.9373 -13.3701C50.5437 -7.05521 50.5437 3.1833 43.9373 9.49822C37.3309 15.8131 26.6198 15.8131 20.0135 9.49823C13.4071 3.1833 13.4071 -7.05521 20.0135 -13.3701Z" fill="#BCBCFF"/>
<path d="M92.9577 79.2253L19.7789 9.27505L43.7028 -13.5933L116.882 56.357L92.9577 79.2253Z" fill="#BCBCFF"/>
<path d="M71.6474 24.8894C71.6474 26.6405 70.4594 28.0601 68.9938 28.0601C67.5283 28.0601 66.3402 26.6405 66.3402 24.8894C66.3402 23.1383 67.5283 21.7187 68.9938 21.7187C70.4594 21.7187 71.6474 23.1383 71.6474 24.8894Z" fill="#1C1D1F"/>
<path d="M71.6474 24.8894C71.6474 26.6405 70.4594 28.0601 68.9938 28.0601C67.5283 28.0601 66.3402 26.6405 66.3402 24.8894C66.3402 23.1383 67.5283 21.7187 68.9938 21.7187C70.4594 21.7187 71.6474 23.1383 71.6474 24.8894Z" fill="black" fill-opacity="0.2"/>
<path d="M71.6474 24.8894C71.6474 26.6405 70.4594 28.0601 68.9938 28.0601C67.5283 28.0601 66.3402 26.6405 66.3402 24.8894C66.3402 23.1383 67.5283 21.7187 68.9938 21.7187C70.4594 21.7187 71.6474 23.1383 71.6474 24.8894Z" fill="black" fill-opacity="0.2"/>
<path d="M71.6474 24.8894C71.6474 26.6405 70.4594 28.0601 68.9938 28.0601C67.5283 28.0601 66.3402 26.6405 66.3402 24.8894C66.3402 23.1383 67.5283 21.7187 68.9938 21.7187C70.4594 21.7187 71.6474 23.1383 71.6474 24.8894Z" fill="black" fill-opacity="0.2"/>
<path d="M71.6474 24.8894C71.6474 26.6405 70.4594 28.0601 68.9938 28.0601C67.5283 28.0601 66.3402 26.6405 66.3402 24.8894C66.3402 23.1383 67.5283 21.7187 68.9938 21.7187C70.4594 21.7187 71.6474 23.1383 71.6474 24.8894Z" fill="black" fill-opacity="0.2"/>
<path d="M71.6474 24.8894C71.6474 26.6405 70.4594 28.0601 68.9938 28.0601C67.5283 28.0601 66.3402 26.6405 66.3402 24.8894C66.3402 23.1383 67.5283 21.7187 68.9938 21.7187C70.4594 21.7187 71.6474 23.1383 71.6474 24.8894Z" fill="black" fill-opacity="0.2"/>
<path d="M54.3989 24.8894C54.3989 26.6405 53.2108 28.0601 51.7453 28.0601C50.2797 28.0601 49.0917 26.6405 49.0917 24.8894C49.0917 23.1383 50.2797 21.7187 51.7453 21.7187C53.2108 21.7187 54.3989 23.1383 54.3989 24.8894Z" fill="#1C1D1F"/>
<path d="M54.3989 24.8894C54.3989 26.6405 53.2108 28.0601 51.7453 28.0601C50.2797 28.0601 49.0917 26.6405 49.0917 24.8894C49.0917 23.1383 50.2797 21.7187 51.7453 21.7187C53.2108 21.7187 54.3989 23.1383 54.3989 24.8894Z" fill="black" fill-opacity="0.2"/>
<path d="M54.3989 24.8894C54.3989 26.6405 53.2108 28.0601 51.7453 28.0601C50.2797 28.0601 49.0917 26.6405 49.0917 24.8894C49.0917 23.1383 50.2797 21.7187 51.7453 21.7187C53.2108 21.7187 54.3989 23.1383 54.3989 24.8894Z" fill="black" fill-opacity="0.2"/>
<path d="M54.3989 24.8894C54.3989 26.6405 53.2108 28.0601 51.7453 28.0601C50.2797 28.0601 49.0917 26.6405 49.0917 24.8894C49.0917 23.1383 50.2797 21.7187 51.7453 21.7187C53.2108 21.7187 54.3989 23.1383 54.3989 24.8894Z" fill="black" fill-opacity="0.2"/>
<path d="M54.3989 24.8894C54.3989 26.6405 53.2108 28.0601 51.7453 28.0601C50.2797 28.0601 49.0917 26.6405 49.0917 24.8894C49.0917 23.1383 50.2797 21.7187 51.7453 21.7187C53.2108 21.7187 54.3989 23.1383 54.3989 24.8894Z" fill="black" fill-opacity="0.2"/>
<path d="M54.3989 24.8894C54.3989 26.6405 53.2108 28.0601 51.7453 28.0601C50.2797 28.0601 49.0917 26.6405 49.0917 24.8894C49.0917 23.1383 50.2797 21.7187 51.7453 21.7187C53.2108 21.7187 54.3989 23.1383 54.3989 24.8894Z" fill="black" fill-opacity="0.2"/>
<path d="M64.35 29.0107C64.35 30.2365 62.7165 31.2301 60.7013 31.2301C58.6862 31.2301 57.0526 30.2365 57.0526 29.0107C57.0526 27.7849 58.6862 26.7912 60.7013 26.7912C62.7165 26.7912 64.35 27.7849 64.35 29.0107Z" fill="#1C1D1F"/>
<path d="M64.35 29.0107C64.35 30.2365 62.7165 31.2301 60.7013 31.2301C58.6862 31.2301 57.0526 30.2365 57.0526 29.0107C57.0526 27.7849 58.6862 26.7912 60.7013 26.7912C62.7165 26.7912 64.35 27.7849 64.35 29.0107Z" fill="black" fill-opacity="0.2"/>
<path d="M64.35 29.0107C64.35 30.2365 62.7165 31.2301 60.7013 31.2301C58.6862 31.2301 57.0526 30.2365 57.0526 29.0107C57.0526 27.7849 58.6862 26.7912 60.7013 26.7912C62.7165 26.7912 64.35 27.7849 64.35 29.0107Z" fill="black" fill-opacity="0.2"/>
<path d="M64.35 29.0107C64.35 30.2365 62.7165 31.2301 60.7013 31.2301C58.6862 31.2301 57.0526 30.2365 57.0526 29.0107C57.0526 27.7849 58.6862 26.7912 60.7013 26.7912C62.7165 26.7912 64.35 27.7849 64.35 29.0107Z" fill="black" fill-opacity="0.2"/>
<path d="M64.35 29.0107C64.35 30.2365 62.7165 31.2301 60.7013 31.2301C58.6862 31.2301 57.0526 30.2365 57.0526 29.0107C57.0526 27.7849 58.6862 26.7912 60.7013 26.7912C62.7165 26.7912 64.35 27.7849 64.35 29.0107Z" fill="black" fill-opacity="0.2"/>
<path d="M64.35 29.0107C64.35 30.2365 62.7165 31.2301 60.7013 31.2301C58.6862 31.2301 57.0526 30.2365 57.0526 29.0107C57.0526 27.7849 58.6862 26.7912 60.7013 26.7912C62.7165 26.7912 64.35 27.7849 64.35 29.0107Z" fill="black" fill-opacity="0.2"/>
<path d="M64.3499 37.5714C64.3499 39.3225 63.4588 40.7421 62.3597 40.7421C61.2605 40.7421 60.3695 39.3225 60.3695 37.5714C60.3695 35.8203 61.2605 34.4007 62.3597 34.4007C63.4588 34.4007 64.3499 35.8203 64.3499 37.5714Z" fill="#1C1D1F"/>
<path d="M64.3499 37.5714C64.3499 39.3225 63.4588 40.7421 62.3597 40.7421C61.2605 40.7421 60.3695 39.3225 60.3695 37.5714C60.3695 35.8203 61.2605 34.4007 62.3597 34.4007C63.4588 34.4007 64.3499 35.8203 64.3499 37.5714Z" fill="black" fill-opacity="0.2"/>
<path d="M64.3499 37.5714C64.3499 39.3225 63.4588 40.7421 62.3597 40.7421C61.2605 40.7421 60.3695 39.3225 60.3695 37.5714C60.3695 35.8203 61.2605 34.4007 62.3597 34.4007C63.4588 34.4007 64.3499 35.8203 64.3499 37.5714Z" fill="black" fill-opacity="0.2"/>
<path d="M64.3499 37.5714C64.3499 39.3225 63.4588 40.7421 62.3597 40.7421C61.2605 40.7421 60.3695 39.3225 60.3695 37.5714C60.3695 35.8203 61.2605 34.4007 62.3597 34.4007C63.4588 34.4007 64.3499 35.8203 64.3499 37.5714Z" fill="black" fill-opacity="0.2"/>
<path d="M64.3499 37.5714C64.3499 39.3225 63.4588 40.7421 62.3597 40.7421C61.2605 40.7421 60.3695 39.3225 60.3695 37.5714C60.3695 35.8203 61.2605 34.4007 62.3597 34.4007C63.4588 34.4007 64.3499 35.8203 64.3499 37.5714Z" fill="black" fill-opacity="0.2"/>
<path d="M64.3499 37.5714C64.3499 39.3225 63.4588 40.7421 62.3597 40.7421C61.2605 40.7421 60.3695 39.3225 60.3695 37.5714C60.3695 35.8203 61.2605 34.4007 62.3597 34.4007C63.4588 34.4007 64.3499 35.8203 64.3499 37.5714Z" fill="black" fill-opacity="0.2"/>
</g>
</svg>
