<svg width="107" height="106" viewBox="0 0 107 106" fill="none" xmlns="http://www.w3.org/2000/svg">
<g id="Mask group">
<mask id="mask0_388_8819" style="mask-type:alpha" maskUnits="userSpaceOnUse" x="0" y="0" width="107" height="106">
<rect id="Rectangle 4190" width="107" height="106" rx="12" fill="#DBDBFF"/>
</mask>
<g mask="url(#mask0_388_8819)">
<g id="Group 40" filter="url(#filter0_d_388_8819)">
<g id="Group 26">
<g id="Vector">
<path d="M39.8184 31.2674C39.8184 40.1941 32.2479 47.4306 22.9092 47.4306C13.5705 47.4306 6 40.1941 6 31.2674C6 22.3407 13.5705 15.1042 22.9092 15.1042C32.2479 15.1042 39.8184 22.3407 39.8184 31.2674Z" fill="#DBDBFF"/>
<path d="M142.6 31.2673C142.6 40.194 135.03 47.4305 125.691 47.4305C116.352 47.4305 108.782 40.194 108.782 31.2673C108.782 22.3406 116.352 15.1041 125.691 15.1041C135.03 15.1041 142.6 22.3406 142.6 31.2673Z" fill="#DBDBFF"/>
<path d="M22.5775 15.1041H126.022V47.4305H22.5775V15.1041Z" fill="#DBDBFF"/>
<path d="M74.3 -1.6932C64.9613 -1.6932 57.3907 -8.92972 57.3907 -17.8564C57.3907 -26.7831 64.9613 -34.0197 74.3 -34.0197C83.6387 -34.0197 91.2092 -26.7831 91.2092 -17.8564C91.2092 -8.92972 83.6387 -1.6932 74.3 -1.6932Z" fill="#DBDBFF"/>
<path d="M74.3004 96.5535C64.9617 96.5535 57.3912 89.317 57.3912 80.3903C57.3912 71.4636 64.9617 64.2271 74.3004 64.2271C83.6391 64.2271 91.2096 71.4636 91.2096 80.3903C91.2096 89.317 83.6391 96.5535 74.3004 96.5535Z" fill="#DBDBFF"/>
<path d="M91.2096 -18.1727V80.7082H57.3912L57.3912 -18.1727H91.2096Z" fill="#DBDBFF"/>
<path d="M98.682 7.9616C92.0785 1.64947 92.0785 -8.58452 98.682 -14.8967C105.285 -21.2088 115.992 -21.2088 122.595 -14.8967C129.199 -8.58452 129.199 1.64947 122.595 7.9616C115.992 14.2737 105.285 14.2737 98.682 7.9616Z" fill="#DBDBFF"/>
<path d="M26.0045 77.4327C19.4011 71.1205 19.4011 60.8866 26.0045 54.5744C32.608 48.2623 43.3143 48.2623 49.9178 54.5744C56.5212 60.8866 56.5212 71.1205 49.9178 77.4327C43.3143 83.7448 32.608 83.7448 26.0045 77.4327Z" fill="#DBDBFF"/>
<path d="M122.83 7.73686L49.6837 77.6562L25.7705 54.798L98.9169 -15.1214L122.83 7.73686Z" fill="#DBDBFF"/>
<path d="M98.6826 54.5735C105.286 48.2614 115.992 48.2614 122.596 54.5735C129.199 60.8857 129.199 71.1197 122.596 77.4318C115.992 83.7439 105.286 83.7439 98.6826 77.4318C92.0792 71.1197 92.0792 60.8857 98.6826 54.5735Z" fill="#DBDBFF"/>
<path d="M26.005 -14.8974C32.6085 -21.2095 43.3148 -21.2095 49.9183 -14.8974C56.5217 -8.58526 56.5217 1.64872 49.9183 7.96086C43.3148 14.273 32.6085 14.273 26.005 7.96086C19.4015 1.64873 19.4015 -8.58526 26.005 -14.8974Z" fill="#DBDBFF"/>
<path d="M98.9169 77.6569L25.7705 7.73756L49.6838 -15.1207L122.83 54.7987L98.9169 77.6569Z" fill="#DBDBFF"/>
<path d="M70.9848 38.5575C70.8743 39.1914 70.1892 40.4591 68.3324 40.4591M39.8184 31.2674C39.8184 40.1941 32.2479 47.4306 22.9092 47.4306C13.5705 47.4306 6 40.1941 6 31.2674C6 22.3407 13.5705 15.1042 22.9092 15.1042C32.2479 15.1042 39.8184 22.3407 39.8184 31.2674ZM142.6 31.2673C142.6 40.194 135.03 47.4305 125.691 47.4305C116.352 47.4305 108.782 40.194 108.782 31.2673C108.782 22.3406 116.352 15.1041 125.691 15.1041C135.03 15.1041 142.6 22.3406 142.6 31.2673ZM22.5775 15.1041H126.022V47.4305H22.5775V15.1041ZM74.3 -1.6932C64.9613 -1.6932 57.3907 -8.92972 57.3907 -17.8564C57.3907 -26.7831 64.9613 -34.0197 74.3 -34.0197C83.6387 -34.0197 91.2092 -26.7831 91.2092 -17.8564C91.2092 -8.92972 83.6387 -1.6932 74.3 -1.6932ZM74.3004 96.5535C64.9617 96.5535 57.3912 89.317 57.3912 80.3903C57.3912 71.4636 64.9617 64.2271 74.3004 64.2271C83.6391 64.2271 91.2096 71.4636 91.2096 80.3903C91.2096 89.317 83.6391 96.5535 74.3004 96.5535ZM91.2096 -18.1727V80.7082H57.3912L57.3912 -18.1727H91.2096ZM98.682 7.9616C92.0785 1.64947 92.0785 -8.58452 98.682 -14.8967C105.285 -21.2088 115.992 -21.2088 122.595 -14.8967C129.199 -8.58452 129.199 1.64947 122.595 7.9616C115.992 14.2737 105.285 14.2737 98.682 7.9616ZM26.0045 77.4327C19.4011 71.1205 19.4011 60.8866 26.0045 54.5744C32.608 48.2623 43.3143 48.2623 49.9178 54.5744C56.5212 60.8866 56.5212 71.1205 49.9178 77.4327C43.3143 83.7448 32.608 83.7448 26.0045 77.4327ZM122.83 7.73686L49.6837 77.6562L25.7705 54.798L98.9169 -15.1214L122.83 7.73686ZM98.6826 54.5735C105.286 48.2614 115.992 48.2614 122.596 54.5735C129.199 60.8857 129.199 71.1197 122.596 77.4318C115.992 83.7439 105.286 83.7439 98.6826 77.4318C92.0792 71.1197 92.0792 60.8857 98.6826 54.5735ZM26.005 -14.8974C32.6085 -21.2095 43.3148 -21.2095 49.9183 -14.8974C56.5217 -8.58526 56.5217 1.64872 49.9183 7.96086C43.3148 14.273 32.6085 14.273 26.005 7.96086C19.4015 1.64873 19.4015 -8.58526 26.005 -14.8974ZM98.9169 77.6569L25.7705 7.73756L49.6838 -15.1207L122.83 54.7987L98.9169 77.6569Z" stroke="#DBDBFF" stroke-width="0.807824" stroke-linecap="round"/>
</g>
</g>
<g id="Ellipse 53">
<ellipse cx="75.0159" cy="22.7167" rx="2.86254" ry="3.42032" fill="#1C1D1F"/>
<ellipse cx="75.0159" cy="22.7167" rx="2.86254" ry="3.42032" fill="black" fill-opacity="0.2"/>
<ellipse cx="75.0159" cy="22.7167" rx="2.86254" ry="3.42032" fill="black" fill-opacity="0.2"/>
<ellipse cx="75.0159" cy="22.7167" rx="2.86254" ry="3.42032" fill="black" fill-opacity="0.2"/>
<ellipse cx="75.0159" cy="22.7167" rx="2.86254" ry="3.42032" fill="black" fill-opacity="0.2"/>
<ellipse cx="75.0159" cy="22.7167" rx="2.86254" ry="3.42032" fill="black" fill-opacity="0.2"/>
</g>
<g id="Ellipse 54">
<path d="M94.8977 21.6894C94.8977 28.1605 89.3981 33.4727 82.5303 33.4727C75.6624 33.4727 70.1628 28.1605 70.1628 21.6894C70.1628 15.2182 75.6624 9.906 82.5303 9.906C89.3981 9.906 94.8977 15.2182 94.8977 21.6894Z" stroke="#1C1D1F" stroke-width="1.74363"/>
<path d="M94.8977 21.6894C94.8977 28.1605 89.3981 33.4727 82.5303 33.4727C75.6624 33.4727 70.1628 28.1605 70.1628 21.6894C70.1628 15.2182 75.6624 9.906 82.5303 9.906C89.3981 9.906 94.8977 15.2182 94.8977 21.6894Z" stroke="black" stroke-opacity="0.2" stroke-width="1.74363"/>
<path d="M94.8977 21.6894C94.8977 28.1605 89.3981 33.4727 82.5303 33.4727C75.6624 33.4727 70.1628 28.1605 70.1628 21.6894C70.1628 15.2182 75.6624 9.906 82.5303 9.906C89.3981 9.906 94.8977 15.2182 94.8977 21.6894Z" stroke="black" stroke-opacity="0.2" stroke-width="1.74363"/>
<path d="M94.8977 21.6894C94.8977 28.1605 89.3981 33.4727 82.5303 33.4727C75.6624 33.4727 70.1628 28.1605 70.1628 21.6894C70.1628 15.2182 75.6624 9.906 82.5303 9.906C89.3981 9.906 94.8977 15.2182 94.8977 21.6894Z" stroke="black" stroke-opacity="0.2" stroke-width="1.74363"/>
<path d="M94.8977 21.6894C94.8977 28.1605 89.3981 33.4727 82.5303 33.4727C75.6624 33.4727 70.1628 28.1605 70.1628 21.6894C70.1628 15.2182 75.6624 9.906 82.5303 9.906C89.3981 9.906 94.8977 15.2182 94.8977 21.6894Z" stroke="black" stroke-opacity="0.2" stroke-width="1.74363"/>
<path d="M94.8977 21.6894C94.8977 28.1605 89.3981 33.4727 82.5303 33.4727C75.6624 33.4727 70.1628 28.1605 70.1628 21.6894C70.1628 15.2182 75.6624 9.906 82.5303 9.906C89.3981 9.906 94.8977 15.2182 94.8977 21.6894Z" stroke="black" stroke-opacity="0.2" stroke-width="1.74363"/>
</g>
<g id="Ellipse 55">
<path d="M70.0065 24.084C69.5366 23.6348 68.9787 23.2785 68.3648 23.0354C67.7508 22.7924 67.0928 22.6672 66.4283 22.6672C65.7637 22.6672 65.1057 22.7924 64.4918 23.0354C63.8778 23.2785 63.32 23.6348 62.8501 24.084" stroke="#1C1D1F" stroke-width="1.74363" stroke-linecap="round"/>
<path d="M70.0065 24.084C69.5366 23.6348 68.9787 23.2785 68.3648 23.0354C67.7508 22.7924 67.0928 22.6672 66.4283 22.6672C65.7637 22.6672 65.1057 22.7924 64.4918 23.0354C63.8778 23.2785 63.32 23.6348 62.8501 24.084" stroke="black" stroke-opacity="0.2" stroke-width="1.74363" stroke-linecap="round"/>
<path d="M70.0065 24.084C69.5366 23.6348 68.9787 23.2785 68.3648 23.0354C67.7508 22.7924 67.0928 22.6672 66.4283 22.6672C65.7637 22.6672 65.1057 22.7924 64.4918 23.0354C63.8778 23.2785 63.32 23.6348 62.8501 24.084" stroke="black" stroke-opacity="0.2" stroke-width="1.74363" stroke-linecap="round"/>
<path d="M70.0065 24.084C69.5366 23.6348 68.9787 23.2785 68.3648 23.0354C67.7508 22.7924 67.0928 22.6672 66.4283 22.6672C65.7637 22.6672 65.1057 22.7924 64.4918 23.0354C63.8778 23.2785 63.32 23.6348 62.8501 24.084" stroke="black" stroke-opacity="0.2" stroke-width="1.74363" stroke-linecap="round"/>
<path d="M70.0065 24.084C69.5366 23.6348 68.9787 23.2785 68.3648 23.0354C67.7508 22.7924 67.0928 22.6672 66.4283 22.6672C65.7637 22.6672 65.1057 22.7924 64.4918 23.0354C63.8778 23.2785 63.32 23.6348 62.8501 24.084" stroke="black" stroke-opacity="0.2" stroke-width="1.74363" stroke-linecap="round"/>
<path d="M70.0065 24.084C69.5366 23.6348 68.9787 23.2785 68.3648 23.0354C67.7508 22.7924 67.0928 22.6672 66.4283 22.6672C65.7637 22.6672 65.1057 22.7924 64.4918 23.0354C63.8778 23.2785 63.32 23.6348 62.8501 24.084" stroke="black" stroke-opacity="0.2" stroke-width="1.74363" stroke-linecap="round"/>
</g>
<g id="Ellipse 56">
<ellipse cx="56.4094" cy="22.7167" rx="2.86254" ry="3.42032" fill="#1C1D1F"/>
<ellipse cx="56.4094" cy="22.7167" rx="2.86254" ry="3.42032" fill="black" fill-opacity="0.2"/>
<ellipse cx="56.4094" cy="22.7167" rx="2.86254" ry="3.42032" fill="black" fill-opacity="0.2"/>
<ellipse cx="56.4094" cy="22.7167" rx="2.86254" ry="3.42032" fill="black" fill-opacity="0.2"/>
<ellipse cx="56.4094" cy="22.7167" rx="2.86254" ry="3.42032" fill="black" fill-opacity="0.2"/>
<ellipse cx="56.4094" cy="22.7167" rx="2.86254" ry="3.42032" fill="black" fill-opacity="0.2"/>
</g>
<g id="Ellipse 57">
<ellipse cx="66.0705" cy="27.1625" rx="3.936" ry="2.39422" fill="#1C1D1F"/>
<ellipse cx="66.0705" cy="27.1625" rx="3.936" ry="2.39422" fill="black" fill-opacity="0.2"/>
<ellipse cx="66.0705" cy="27.1625" rx="3.936" ry="2.39422" fill="black" fill-opacity="0.2"/>
<ellipse cx="66.0705" cy="27.1625" rx="3.936" ry="2.39422" fill="black" fill-opacity="0.2"/>
<ellipse cx="66.0705" cy="27.1625" rx="3.936" ry="2.39422" fill="black" fill-opacity="0.2"/>
<ellipse cx="66.0705" cy="27.1625" rx="3.936" ry="2.39422" fill="black" fill-opacity="0.2"/>
</g>
<g id="Ellipse 68">
<path d="M64.0506 36.0822C64.7517 36.4691 65.5256 36.7202 66.3283 36.8212C67.1309 36.9222 67.9465 36.8711 68.7284 36.6709C69.5104 36.4706 70.2435 36.125 70.8857 35.6539C71.528 35.1829 72.0669 34.5955 72.4717 33.9253" stroke="#1C1D1F" stroke-width="1.74363" stroke-linecap="round"/>
<path d="M64.0506 36.0822C64.7517 36.4691 65.5256 36.7202 66.3283 36.8212C67.1309 36.9222 67.9465 36.8711 68.7284 36.6709C69.5104 36.4706 70.2435 36.125 70.8857 35.6539C71.528 35.1829 72.0669 34.5955 72.4717 33.9253" stroke="black" stroke-opacity="0.2" stroke-width="1.74363" stroke-linecap="round"/>
<path d="M64.0506 36.0822C64.7517 36.4691 65.5256 36.7202 66.3283 36.8212C67.1309 36.9222 67.9465 36.8711 68.7284 36.6709C69.5104 36.4706 70.2435 36.125 70.8857 35.6539C71.528 35.1829 72.0669 34.5955 72.4717 33.9253" stroke="black" stroke-opacity="0.2" stroke-width="1.74363" stroke-linecap="round"/>
<path d="M64.0506 36.0822C64.7517 36.4691 65.5256 36.7202 66.3283 36.8212C67.1309 36.9222 67.9465 36.8711 68.7284 36.6709C69.5104 36.4706 70.2435 36.125 70.8857 35.6539C71.528 35.1829 72.0669 34.5955 72.4717 33.9253" stroke="black" stroke-opacity="0.2" stroke-width="1.74363" stroke-linecap="round"/>
<path d="M64.0506 36.0822C64.7517 36.4691 65.5256 36.7202 66.3283 36.8212C67.1309 36.9222 67.9465 36.8711 68.7284 36.6709C69.5104 36.4706 70.2435 36.125 70.8857 35.6539C71.528 35.1829 72.0669 34.5955 72.4717 33.9253" stroke="black" stroke-opacity="0.2" stroke-width="1.74363" stroke-linecap="round"/>
<path d="M64.0506 36.0822C64.7517 36.4691 65.5256 36.7202 66.3283 36.8212C67.1309 36.9222 67.9465 36.8711 68.7284 36.6709C69.5104 36.4706 70.2435 36.125 70.8857 35.6539C71.528 35.1829 72.0669 34.5955 72.4717 33.9253" stroke="black" stroke-opacity="0.2" stroke-width="1.74363" stroke-linecap="round"/>
</g>
</g>
</g>
</g>
<defs>
<filter id="filter0_d_388_8819" x="5.59619" y="-34.4236" width="144.382" height="138.356" filterUnits="userSpaceOnUse" color-interpolation-filters="sRGB">
<feFlood flood-opacity="0" result="BackgroundImageFix"/>
<feColorMatrix in="SourceAlpha" type="matrix" values="0 0 0 0 0 0 0 0 0 0 0 0 0 0 0 0 0 0 127 0" result="hardAlpha"/>
<feOffset dx="3.48727" dy="3.48727"/>
<feGaussianBlur stdDeviation="1.74363"/>
<feComposite in2="hardAlpha" operator="out"/>
<feColorMatrix type="matrix" values="0 0 0 0 0 0 0 0 0 0 0 0 0 0 0 0 0 0 0.1 0"/>
<feBlend mode="normal" in2="BackgroundImageFix" result="effect1_dropShadow_388_8819"/>
<feBlend mode="normal" in="SourceGraphic" in2="effect1_dropShadow_388_8819" result="shape"/>
</filter>
</defs>
</svg>
