<svg width="129" height="168" viewBox="0 0 129 168" fill="none" xmlns="http://www.w3.org/2000/svg">
<g filter="url(#filter0_d_631_10007)">
<circle cx="34.8933" cy="51.8853" r="10.9848" transform="rotate(12.7988 34.8933 51.8853)" fill="#DBDBFF" stroke="#DBDBFF" stroke-width="0.537634"/>
<circle cx="101.598" cy="67.0388" r="10.9848" transform="rotate(12.7988 101.598 67.0388)" fill="#DBDBFF" stroke="#DBDBFF" stroke-width="0.537634"/>
<rect x="37.3736" y="41.184" width="68.3083" height="21.9697" transform="rotate(12.7988 37.3736 41.184)" fill="#DBDBFF" stroke="#DBDBFF" stroke-width="0.537634"/>
<circle cx="75.8225" cy="26.1097" r="10.9848" transform="rotate(102.799 75.8225 26.1097)" fill="#DBDBFF" stroke="#DBDBFF" stroke-width="0.537634"/>
<circle cx="60.6692" cy="92.8145" r="10.9848" transform="rotate(102.799 60.6692 92.8145)" fill="#DBDBFF" stroke="#DBDBFF" stroke-width="0.537634"/>
<rect x="86.5238" y="28.5903" width="68.3083" height="21.9697" transform="rotate(102.799 86.5238 28.5903)" fill="#DBDBFF" stroke="#DBDBFF" stroke-width="0.537634"/>
<circle cx="97.187" cy="41.2361" r="10.9848" transform="rotate(147.799 97.187 41.2361)" fill="#DBDBFF" stroke="#DBDBFF" stroke-width="0.537634"/>
<circle cx="39.3043" cy="77.6887" r="10.9848" transform="rotate(147.799 39.3043 77.6887)" fill="#DBDBFF" stroke="#DBDBFF" stroke-width="0.537634"/>
<rect x="103" y="50.5567" width="68.3083" height="21.9697" transform="rotate(147.799 103 50.5567)" fill="#DBDBFF" stroke="#DBDBFF" stroke-width="0.537634"/>
<circle cx="86.4722" cy="88.4032" r="10.9848" transform="rotate(-122.201 86.4722 88.4032)" fill="#DBDBFF" stroke="#DBDBFF" stroke-width="0.537634"/>
<circle cx="50.0196" cy="30.5206" r="10.9848" transform="rotate(-122.201 50.0196 30.5206)" fill="#DBDBFF" stroke="#DBDBFF" stroke-width="0.537634"/>
<rect x="77.1511" y="94.2167" width="68.3083" height="21.9697" transform="rotate(-122.201 77.1511 94.2167)" fill="#DBDBFF" stroke="#DBDBFF" stroke-width="0.537634"/>
<path d="M64.9697 63.9228C64.8002 64.3368 64.16 65.0965 62.955 64.8228" stroke="#DBDBFF" stroke-width="0.537634" stroke-linecap="round"/>
<ellipse cx="69.8982" cy="54.1808" rx="1.76528" ry="2.2066" transform="rotate(12.7988 69.8982 54.1808)" fill="#1C1D1F"/>
<ellipse cx="69.8982" cy="54.1808" rx="1.76528" ry="2.2066" transform="rotate(12.7988 69.8982 54.1808)" fill="black" fill-opacity="0.2"/>
<ellipse cx="69.8982" cy="54.1808" rx="1.76528" ry="2.2066" transform="rotate(12.7988 69.8982 54.1808)" fill="black" fill-opacity="0.2"/>
<ellipse cx="69.8982" cy="54.1808" rx="1.76528" ry="2.2066" transform="rotate(12.7988 69.8982 54.1808)" fill="black" fill-opacity="0.2"/>
<ellipse cx="69.8982" cy="54.1808" rx="1.76528" ry="2.2066" transform="rotate(12.7988 69.8982 54.1808)" fill="black" fill-opacity="0.2"/>
<ellipse cx="69.8982" cy="54.1808" rx="1.76528" ry="2.2066" transform="rotate(12.7988 69.8982 54.1808)" fill="black" fill-opacity="0.2"/>
<circle cx="74.5638" cy="54.5615" r="7.62678" transform="rotate(12.7988 74.5638 54.5615)" stroke="#1C1D1F" stroke-width="1.07527"/>
<circle cx="74.5638" cy="54.5615" r="7.62678" transform="rotate(12.7988 74.5638 54.5615)" stroke="black" stroke-opacity="0.2" stroke-width="1.07527"/>
<circle cx="74.5638" cy="54.5615" r="7.62678" transform="rotate(12.7988 74.5638 54.5615)" stroke="black" stroke-opacity="0.2" stroke-width="1.07527"/>
<circle cx="74.5638" cy="54.5615" r="7.62678" transform="rotate(12.7988 74.5638 54.5615)" stroke="black" stroke-opacity="0.2" stroke-width="1.07527"/>
<circle cx="74.5638" cy="54.5615" r="7.62678" transform="rotate(12.7988 74.5638 54.5615)" stroke="black" stroke-opacity="0.2" stroke-width="1.07527"/>
<circle cx="74.5638" cy="54.5615" r="7.62678" transform="rotate(12.7988 74.5638 54.5615)" stroke="black" stroke-opacity="0.2" stroke-width="1.07527"/>
<path d="M66.6903 54.3566C66.4719 54.0098 66.1873 53.7094 65.8529 53.4726C65.5184 53.2358 65.1406 53.0672 64.741 52.9764C64.3413 52.8857 63.9278 52.8745 63.5238 52.9435C63.1199 53.0126 62.7335 53.1605 62.3867 53.3789" stroke="#1C1D1F" stroke-width="1.07527" stroke-linecap="round"/>
<path d="M66.6903 54.3566C66.4719 54.0098 66.1873 53.7094 65.8529 53.4726C65.5184 53.2358 65.1406 53.0672 64.741 52.9764C64.3413 52.8857 63.9278 52.8745 63.5238 52.9435C63.1199 53.0126 62.7335 53.1605 62.3867 53.3789" stroke="black" stroke-opacity="0.2" stroke-width="1.07527" stroke-linecap="round"/>
<path d="M66.6903 54.3566C66.4719 54.0098 66.1873 53.7094 65.8529 53.4726C65.5184 53.2358 65.1406 53.0672 64.741 52.9764C64.3413 52.8857 63.9278 52.8745 63.5238 52.9435C63.1199 53.0126 62.7335 53.1605 62.3867 53.3789" stroke="black" stroke-opacity="0.2" stroke-width="1.07527" stroke-linecap="round"/>
<path d="M66.6903 54.3566C66.4719 54.0098 66.1873 53.7094 65.8529 53.4726C65.5184 53.2358 65.1406 53.0672 64.741 52.9764C64.3413 52.8857 63.9278 52.8745 63.5238 52.9435C63.1199 53.0126 62.7335 53.1605 62.3867 53.3789" stroke="black" stroke-opacity="0.2" stroke-width="1.07527" stroke-linecap="round"/>
<path d="M66.6903 54.3566C66.4719 54.0098 66.1873 53.7094 65.8529 53.4726C65.5184 53.2358 65.1406 53.0672 64.741 52.9764C64.3413 52.8857 63.9278 52.8745 63.5238 52.9435C63.1199 53.0126 62.7335 53.1605 62.3867 53.3789" stroke="black" stroke-opacity="0.2" stroke-width="1.07527" stroke-linecap="round"/>
<path d="M66.6903 54.3566C66.4719 54.0098 66.1873 53.7094 65.8529 53.4726C65.5184 53.2358 65.1406 53.0672 64.741 52.9764C64.3413 52.8857 63.9278 52.8745 63.5238 52.9435C63.1199 53.0126 62.7335 53.1605 62.3867 53.3789" stroke="black" stroke-opacity="0.2" stroke-width="1.07527" stroke-linecap="round"/>
<ellipse cx="58.7089" cy="51.639" rx="1.76528" ry="2.2066" transform="rotate(12.7988 58.7089 51.639)" fill="#1C1D1F"/>
<ellipse cx="58.7089" cy="51.639" rx="1.76528" ry="2.2066" transform="rotate(12.7988 58.7089 51.639)" fill="black" fill-opacity="0.2"/>
<ellipse cx="58.7089" cy="51.639" rx="1.76528" ry="2.2066" transform="rotate(12.7988 58.7089 51.639)" fill="black" fill-opacity="0.2"/>
<ellipse cx="58.7089" cy="51.639" rx="1.76528" ry="2.2066" transform="rotate(12.7988 58.7089 51.639)" fill="black" fill-opacity="0.2"/>
<ellipse cx="58.7089" cy="51.639" rx="1.76528" ry="2.2066" transform="rotate(12.7988 58.7089 51.639)" fill="black" fill-opacity="0.2"/>
<ellipse cx="58.7089" cy="51.639" rx="1.76528" ry="2.2066" transform="rotate(12.7988 58.7089 51.639)" fill="black" fill-opacity="0.2"/>
<ellipse cx="63.8834" cy="55.7559" rx="2.42726" ry="1.54462" transform="rotate(12.7988 63.8834 55.7559)" fill="#1C1D1F"/>
<ellipse cx="63.8834" cy="55.7559" rx="2.42726" ry="1.54462" transform="rotate(12.7988 63.8834 55.7559)" fill="black" fill-opacity="0.2"/>
<ellipse cx="63.8834" cy="55.7559" rx="2.42726" ry="1.54462" transform="rotate(12.7988 63.8834 55.7559)" fill="black" fill-opacity="0.2"/>
<ellipse cx="63.8834" cy="55.7559" rx="2.42726" ry="1.54462" transform="rotate(12.7988 63.8834 55.7559)" fill="black" fill-opacity="0.2"/>
<ellipse cx="63.8834" cy="55.7559" rx="2.42726" ry="1.54462" transform="rotate(12.7988 63.8834 55.7559)" fill="black" fill-opacity="0.2"/>
<ellipse cx="63.8834" cy="55.7559" rx="2.42726" ry="1.54462" transform="rotate(12.7988 63.8834 55.7559)" fill="black" fill-opacity="0.2"/>
<path d="M61.394 61.0913C61.7603 61.4305 62.1898 61.6942 62.6581 61.8674C63.1263 62.0406 63.6241 62.1198 64.1229 62.1007C64.6218 62.0815 65.112 61.9642 65.5656 61.7556C66.0191 61.547 66.4272 61.2511 66.7664 60.8848" stroke="#1C1D1F" stroke-width="1.07527" stroke-linecap="round"/>
<path d="M61.394 61.0913C61.7603 61.4305 62.1898 61.6942 62.6581 61.8674C63.1263 62.0406 63.6241 62.1198 64.1229 62.1007C64.6218 62.0815 65.112 61.9642 65.5656 61.7556C66.0191 61.547 66.4272 61.2511 66.7664 60.8848" stroke="black" stroke-opacity="0.2" stroke-width="1.07527" stroke-linecap="round"/>
<path d="M61.394 61.0913C61.7603 61.4305 62.1898 61.6942 62.6581 61.8674C63.1263 62.0406 63.6241 62.1198 64.1229 62.1007C64.6218 62.0815 65.112 61.9642 65.5656 61.7556C66.0191 61.547 66.4272 61.2511 66.7664 60.8848" stroke="black" stroke-opacity="0.2" stroke-width="1.07527" stroke-linecap="round"/>
<path d="M61.394 61.0913C61.7603 61.4305 62.1898 61.6942 62.6581 61.8674C63.1263 62.0406 63.6241 62.1198 64.1229 62.1007C64.6218 62.0815 65.112 61.9642 65.5656 61.7556C66.0191 61.547 66.4272 61.2511 66.7664 60.8848" stroke="black" stroke-opacity="0.2" stroke-width="1.07527" stroke-linecap="round"/>
<path d="M61.394 61.0913C61.7603 61.4305 62.1898 61.6942 62.6581 61.8674C63.1263 62.0406 63.6241 62.1198 64.1229 62.1007C64.6218 62.0815 65.112 61.9642 65.5656 61.7556C66.0191 61.547 66.4272 61.2511 66.7664 60.8848" stroke="black" stroke-opacity="0.2" stroke-width="1.07527" stroke-linecap="round"/>
<path d="M61.394 61.0913C61.7603 61.4305 62.1898 61.6942 62.6581 61.8674C63.1263 62.0406 63.6241 62.1198 64.1229 62.1007C64.6218 62.0815 65.112 61.9642 65.5656 61.7556C66.0191 61.547 66.4272 61.2511 66.7664 60.8848" stroke="black" stroke-opacity="0.2" stroke-width="1.07527" stroke-linecap="round"/>
</g>
<path d="M112.5 68H12.5C5.60625 68 0 73.6062 0 80.5V155.5C0 162.394 5.60625 168 12.5 168H112.5C119.394 168 125 162.394 125 155.5V80.5C125 73.6062 119.394 68 112.5 68ZM28.125 86.75C30.6114 86.75 32.996 87.7377 34.7541 89.4959C36.5123 91.254 37.5 93.6386 37.5 96.125C37.5 98.6114 36.5123 100.996 34.7541 102.754C32.996 104.512 30.6114 105.5 28.125 105.5C25.6386 105.5 23.254 104.512 21.4959 102.754C19.7377 100.996 18.75 98.6114 18.75 96.125C18.75 93.6386 19.7377 91.254 21.4959 89.4959C23.254 87.7377 25.6386 86.75 28.125 86.75ZM62.5 149.25H18.75L41.3309 121.024C42.556 119.493 44.8968 119.529 46.0735 121.098L50.725 127.3C51.925 128.9 54.325 128.9 55.525 127.3L69.5303 108.626C70.7135 107.049 73.071 107.022 74.2893 108.573L106.25 149.25H62.5Z" fill="#9F97FC"/>
<defs>
<filter id="filter0_d_631_10007" x="23.6372" y="14.8535" width="93.5182" height="93.5181" filterUnits="userSpaceOnUse" color-interpolation-filters="sRGB">
<feFlood flood-opacity="0" result="BackgroundImageFix"/>
<feColorMatrix in="SourceAlpha" type="matrix" values="0 0 0 0 0 0 0 0 0 0 0 0 0 0 0 0 0 0 127 0" result="hardAlpha"/>
<feOffset dx="2.15054" dy="2.15054"/>
<feGaussianBlur stdDeviation="1.07527"/>
<feComposite in2="hardAlpha" operator="out"/>
<feColorMatrix type="matrix" values="0 0 0 0 0 0 0 0 0 0 0 0 0 0 0 0 0 0 0.1 0"/>
<feBlend mode="normal" in2="BackgroundImageFix" result="effect1_dropShadow_631_10007"/>
<feBlend mode="normal" in="SourceGraphic" in2="effect1_dropShadow_631_10007" result="shape"/>
</filter>
</defs>
</svg>
