<svg width="84" height="84" viewBox="0 0 84 84" fill="none" xmlns="http://www.w3.org/2000/svg">
<g id="Group 40" filter="url(#filter0_d_338_3605)">
<g id="Group 26">
<g id="Group 22">
<circle id="Ellipse 58" cx="9.94828" cy="40.1628" r="9.61496" fill="#DBDBFF" stroke="#DBDBFF" stroke-width="0.470588"/>
<circle id="Ellipse 59" cx="69.8224" cy="40.1628" r="9.61496" fill="#DBDBFF" stroke="#DBDBFF" stroke-width="0.470588"/>
<rect id="Rectangle 8" x="9.99042" y="30.5478" width="59.7898" height="19.2299" fill="#DBDBFF" stroke="#DBDBFF" stroke-width="0.470588"/>
</g>
<g id="Group 23">
<circle id="Ellipse 58_2" cx="39.8853" cy="10.2257" r="9.61496" transform="rotate(90 39.8853 10.2257)" fill="#DBDBFF" stroke="#DBDBFF" stroke-width="0.470588"/>
<circle id="Ellipse 59_2" cx="39.8855" cy="70.0998" r="9.61496" transform="rotate(90 39.8855 70.0998)" fill="#DBDBFF" stroke="#DBDBFF" stroke-width="0.470588"/>
<rect id="Rectangle 8_2" x="49.5004" y="10.2683" width="59.7898" height="19.2299" transform="rotate(90 49.5004 10.2683)" fill="#DBDBFF" stroke="#DBDBFF" stroke-width="0.470588"/>
</g>
<g id="Group 24">
<circle id="Ellipse 58_3" cx="61.0539" cy="18.9941" r="9.61496" transform="rotate(135 61.0539 18.9941)" fill="#DBDBFF" stroke="#DBDBFF" stroke-width="0.470588"/>
<circle id="Ellipse 59_3" cx="18.7167" cy="61.3318" r="9.61496" transform="rotate(135 18.7167 61.3318)" fill="#DBDBFF" stroke="#DBDBFF" stroke-width="0.470588"/>
<rect id="Rectangle 8_3" x="67.8231" y="25.8225" width="59.7898" height="19.2299" transform="rotate(135 67.8231 25.8225)" fill="#DBDBFF" stroke="#DBDBFF" stroke-width="0.470588"/>
</g>
<g id="Group 25">
<circle id="Ellipse 58_4" cx="61.0542" cy="61.3314" r="9.61496" transform="rotate(-135 61.0542 61.3314)" fill="#DBDBFF" stroke="#DBDBFF" stroke-width="0.470588"/>
<circle id="Ellipse 59_4" cx="18.7167" cy="18.9939" r="9.61496" transform="rotate(-135 18.7167 18.9939)" fill="#DBDBFF" stroke="#DBDBFF" stroke-width="0.470588"/>
<rect id="Rectangle 8_4" x="54.2255" y="68.1008" width="59.7898" height="19.2299" transform="rotate(-135 54.2255 68.1008)" fill="#DBDBFF" stroke="#DBDBFF" stroke-width="0.470588"/>
<path id="Vector 6" d="M37.9539 44.6055C37.8895 44.9918 37.4904 45.7643 36.4088 45.7643" stroke="#DBDBFF" stroke-width="0.470588" stroke-linecap="round"/>
</g>
</g>
<ellipse id="Ellipse 53" cx="40.2717" cy="35.3345" rx="1.54514" ry="1.93142" fill="black"/>
<circle id="Ellipse 54" cx="44.3278" cy="34.7547" r="6.67568" stroke="black" stroke-width="0.941176"/>
<path id="Ellipse 55" d="M37.5678 36.1067C37.3142 35.8531 37.0131 35.6519 36.6817 35.5146C36.3503 35.3773 35.9951 35.3067 35.6364 35.3067C35.2777 35.3067 34.9225 35.3773 34.5911 35.5146C34.2597 35.6519 33.9586 35.8531 33.705 36.1067" stroke="black" stroke-width="0.941176" stroke-linecap="round"/>
<ellipse id="Ellipse 56" cx="30.2282" cy="35.3345" rx="1.54514" ry="1.93142" fill="black"/>
<ellipse id="Ellipse 57" cx="35.4433" cy="37.8452" rx="2.12457" ry="1.352" fill="black"/>
<path id="Ellipse 68" d="M34.3529 42.8818C34.7313 43.1003 35.1491 43.2421 35.5824 43.2991C36.0156 43.3562 36.4558 43.3273 36.8779 43.2142C37.3 43.1011 37.6957 42.906 38.0424 42.64C38.3891 42.374 38.6799 42.0423 38.8984 41.6638" stroke="black" stroke-width="0.941176" stroke-linecap="round"/>
</g>
<defs>
<filter id="filter0_d_338_3605" x="0.0980225" y="0.375488" width="83.3394" height="83.3392" filterUnits="userSpaceOnUse" color-interpolation-filters="sRGB">
<feFlood flood-opacity="0" result="BackgroundImageFix"/>
<feColorMatrix in="SourceAlpha" type="matrix" values="0 0 0 0 0 0 0 0 0 0 0 0 0 0 0 0 0 0 127 0" result="hardAlpha"/>
<feOffset dx="1.88235" dy="1.88235"/>
<feGaussianBlur stdDeviation="0.941176"/>
<feComposite in2="hardAlpha" operator="out"/>
<feColorMatrix type="matrix" values="0 0 0 0 0 0 0 0 0 0 0 0 0 0 0 0 0 0 0.1 0"/>
<feBlend mode="normal" in2="BackgroundImageFix" result="effect1_dropShadow_338_3605"/>
<feBlend mode="normal" in="SourceGraphic" in2="effect1_dropShadow_338_3605" result="shape"/>
</filter>
</defs>
</svg>
