<svg width="84" height="84" viewBox="0 0 84 84" fill="none" xmlns="http://www.w3.org/2000/svg">
<g filter="url(#filter0_d_787_25089)">
<circle cx="9.9484" cy="40.1637" r="9.61496" fill="#DBDBFF" stroke="#DBDBFF" stroke-width="0.470588"/>
<circle cx="69.8224" cy="40.1637" r="9.61496" fill="#DBDBFF" stroke="#DBDBFF" stroke-width="0.470588"/>
<rect x="9.99067" y="30.5488" width="59.7898" height="19.2299" fill="#DBDBFF" stroke="#DBDBFF" stroke-width="0.470588"/>
<circle cx="39.8853" cy="10.2272" r="9.61496" transform="rotate(90 39.8853 10.2272)" fill="#DBDBFF" stroke="#DBDBFF" stroke-width="0.470588"/>
<circle cx="39.8853" cy="70.1012" r="9.61496" transform="rotate(90 39.8853 70.1012)" fill="#DBDBFF" stroke="#DBDBFF" stroke-width="0.470588"/>
<rect x="49.5003" y="10.2695" width="59.7898" height="19.2299" transform="rotate(90 49.5003 10.2695)" fill="#DBDBFF" stroke="#DBDBFF" stroke-width="0.470588"/>
<circle cx="61.0545" cy="18.9961" r="9.61496" transform="rotate(135 61.0545 18.9961)" fill="#DBDBFF" stroke="#DBDBFF" stroke-width="0.470588"/>
<circle cx="18.7171" cy="61.333" r="9.61496" transform="rotate(135 18.7171 61.333)" fill="#DBDBFF" stroke="#DBDBFF" stroke-width="0.470588"/>
<rect x="67.8235" y="25.8242" width="59.7898" height="19.2299" transform="rotate(135 67.8235 25.8242)" fill="#DBDBFF" stroke="#DBDBFF" stroke-width="0.470588"/>
<circle cx="61.0542" cy="61.3323" r="9.61496" transform="rotate(-135 61.0542 61.3323)" fill="#DBDBFF" stroke="#DBDBFF" stroke-width="0.470588"/>
<circle cx="18.7166" cy="18.9944" r="9.61496" transform="rotate(-135 18.7166 18.9944)" fill="#DBDBFF" stroke="#DBDBFF" stroke-width="0.470588"/>
<rect x="54.2256" y="68.1018" width="59.7898" height="19.2299" transform="rotate(-135 54.2256 68.1018)" fill="#DBDBFF" stroke="#DBDBFF" stroke-width="0.470588"/>
<path d="M37.9538 44.6064C37.8894 44.9927 37.4903 45.7653 36.4087 45.7653" stroke="#DBDBFF" stroke-width="0.470588" stroke-linecap="round"/>
<ellipse cx="40.2717" cy="35.3347" rx="1.54514" ry="1.93142" fill="#1C1D1F"/>
<ellipse cx="40.2717" cy="35.3347" rx="1.54514" ry="1.93142" fill="black" fill-opacity="0.2"/>
<ellipse cx="40.2717" cy="35.3347" rx="1.54514" ry="1.93142" fill="black" fill-opacity="0.2"/>
<ellipse cx="40.2717" cy="35.3347" rx="1.54514" ry="1.93142" fill="black" fill-opacity="0.2"/>
<ellipse cx="40.2717" cy="35.3347" rx="1.54514" ry="1.93142" fill="black" fill-opacity="0.2"/>
<ellipse cx="40.2717" cy="35.3347" rx="1.54514" ry="1.93142" fill="black" fill-opacity="0.2"/>
<circle cx="44.3279" cy="34.7556" r="6.67568" stroke="#1C1D1F" stroke-width="0.941176"/>
<circle cx="44.3279" cy="34.7556" r="6.67568" stroke="black" stroke-opacity="0.2" stroke-width="0.941176"/>
<circle cx="44.3279" cy="34.7556" r="6.67568" stroke="black" stroke-opacity="0.2" stroke-width="0.941176"/>
<circle cx="44.3279" cy="34.7556" r="6.67568" stroke="black" stroke-opacity="0.2" stroke-width="0.941176"/>
<circle cx="44.3279" cy="34.7556" r="6.67568" stroke="black" stroke-opacity="0.2" stroke-width="0.941176"/>
<circle cx="44.3279" cy="34.7556" r="6.67568" stroke="black" stroke-opacity="0.2" stroke-width="0.941176"/>
<path d="M37.5679 36.1074C37.3143 35.8538 37.0132 35.6526 36.6818 35.5153C36.3504 35.3781 35.9952 35.3074 35.6365 35.3074C35.2778 35.3074 34.9226 35.3781 34.5912 35.5153C34.2598 35.6526 33.9587 35.8538 33.7051 36.1074" stroke="#1C1D1F" stroke-width="0.941176" stroke-linecap="round"/>
<path d="M37.5679 36.1074C37.3143 35.8538 37.0132 35.6526 36.6818 35.5153C36.3504 35.3781 35.9952 35.3074 35.6365 35.3074C35.2778 35.3074 34.9226 35.3781 34.5912 35.5153C34.2598 35.6526 33.9587 35.8538 33.7051 36.1074" stroke="black" stroke-opacity="0.2" stroke-width="0.941176" stroke-linecap="round"/>
<path d="M37.5679 36.1074C37.3143 35.8538 37.0132 35.6526 36.6818 35.5153C36.3504 35.3781 35.9952 35.3074 35.6365 35.3074C35.2778 35.3074 34.9226 35.3781 34.5912 35.5153C34.2598 35.6526 33.9587 35.8538 33.7051 36.1074" stroke="black" stroke-opacity="0.2" stroke-width="0.941176" stroke-linecap="round"/>
<path d="M37.5679 36.1074C37.3143 35.8538 37.0132 35.6526 36.6818 35.5153C36.3504 35.3781 35.9952 35.3074 35.6365 35.3074C35.2778 35.3074 34.9226 35.3781 34.5912 35.5153C34.2598 35.6526 33.9587 35.8538 33.7051 36.1074" stroke="black" stroke-opacity="0.2" stroke-width="0.941176" stroke-linecap="round"/>
<path d="M37.5679 36.1074C37.3143 35.8538 37.0132 35.6526 36.6818 35.5153C36.3504 35.3781 35.9952 35.3074 35.6365 35.3074C35.2778 35.3074 34.9226 35.3781 34.5912 35.5153C34.2598 35.6526 33.9587 35.8538 33.7051 36.1074" stroke="black" stroke-opacity="0.2" stroke-width="0.941176" stroke-linecap="round"/>
<path d="M37.5679 36.1074C37.3143 35.8538 37.0132 35.6526 36.6818 35.5153C36.3504 35.3781 35.9952 35.3074 35.6365 35.3074C35.2778 35.3074 34.9226 35.3781 34.5912 35.5153C34.2598 35.6526 33.9587 35.8538 33.7051 36.1074" stroke="black" stroke-opacity="0.2" stroke-width="0.941176" stroke-linecap="round"/>
<ellipse cx="30.2282" cy="35.3347" rx="1.54514" ry="1.93142" fill="#1C1D1F"/>
<ellipse cx="30.2282" cy="35.3347" rx="1.54514" ry="1.93142" fill="black" fill-opacity="0.2"/>
<ellipse cx="30.2282" cy="35.3347" rx="1.54514" ry="1.93142" fill="black" fill-opacity="0.2"/>
<ellipse cx="30.2282" cy="35.3347" rx="1.54514" ry="1.93142" fill="black" fill-opacity="0.2"/>
<ellipse cx="30.2282" cy="35.3347" rx="1.54514" ry="1.93142" fill="black" fill-opacity="0.2"/>
<ellipse cx="30.2282" cy="35.3347" rx="1.54514" ry="1.93142" fill="black" fill-opacity="0.2"/>
<ellipse cx="35.4434" cy="37.8461" rx="2.12457" ry="1.352" fill="#1C1D1F"/>
<ellipse cx="35.4434" cy="37.8461" rx="2.12457" ry="1.352" fill="black" fill-opacity="0.2"/>
<ellipse cx="35.4434" cy="37.8461" rx="2.12457" ry="1.352" fill="black" fill-opacity="0.2"/>
<ellipse cx="35.4434" cy="37.8461" rx="2.12457" ry="1.352" fill="black" fill-opacity="0.2"/>
<ellipse cx="35.4434" cy="37.8461" rx="2.12457" ry="1.352" fill="black" fill-opacity="0.2"/>
<ellipse cx="35.4434" cy="37.8461" rx="2.12457" ry="1.352" fill="black" fill-opacity="0.2"/>
<path d="M34.3529 42.882C34.7313 43.1005 35.1491 43.2423 35.5824 43.2994C36.0156 43.3564 36.4558 43.3276 36.8779 43.2145C37.3 43.1014 37.6957 42.9062 38.0424 42.6402C38.3891 42.3742 38.6799 42.0425 38.8984 41.6641" stroke="#1C1D1F" stroke-width="0.941176" stroke-linecap="round"/>
<path d="M34.3529 42.882C34.7313 43.1005 35.1491 43.2423 35.5824 43.2994C36.0156 43.3564 36.4558 43.3276 36.8779 43.2145C37.3 43.1014 37.6957 42.9062 38.0424 42.6402C38.3891 42.3742 38.6799 42.0425 38.8984 41.6641" stroke="black" stroke-opacity="0.2" stroke-width="0.941176" stroke-linecap="round"/>
<path d="M34.3529 42.882C34.7313 43.1005 35.1491 43.2423 35.5824 43.2994C36.0156 43.3564 36.4558 43.3276 36.8779 43.2145C37.3 43.1014 37.6957 42.9062 38.0424 42.6402C38.3891 42.3742 38.6799 42.0425 38.8984 41.6641" stroke="black" stroke-opacity="0.2" stroke-width="0.941176" stroke-linecap="round"/>
<path d="M34.3529 42.882C34.7313 43.1005 35.1491 43.2423 35.5824 43.2994C36.0156 43.3564 36.4558 43.3276 36.8779 43.2145C37.3 43.1014 37.6957 42.9062 38.0424 42.6402C38.3891 42.3742 38.6799 42.0425 38.8984 41.6641" stroke="black" stroke-opacity="0.2" stroke-width="0.941176" stroke-linecap="round"/>
<path d="M34.3529 42.882C34.7313 43.1005 35.1491 43.2423 35.5824 43.2994C36.0156 43.3564 36.4558 43.3276 36.8779 43.2145C37.3 43.1014 37.6957 42.9062 38.0424 42.6402C38.3891 42.3742 38.6799 42.0425 38.8984 41.6641" stroke="black" stroke-opacity="0.2" stroke-width="0.941176" stroke-linecap="round"/>
<path d="M34.3529 42.882C34.7313 43.1005 35.1491 43.2423 35.5824 43.2994C36.0156 43.3564 36.4558 43.3276 36.8779 43.2145C37.3 43.1014 37.6957 42.9062 38.0424 42.6402C38.3891 42.3742 38.6799 42.0425 38.8984 41.6641" stroke="black" stroke-opacity="0.2" stroke-width="0.941176" stroke-linecap="round"/>
</g>
<defs>
<filter id="filter0_d_787_25089" x="0.0981445" y="0.376953" width="83.3392" height="83.3389" filterUnits="userSpaceOnUse" color-interpolation-filters="sRGB">
<feFlood flood-opacity="0" result="BackgroundImageFix"/>
<feColorMatrix in="SourceAlpha" type="matrix" values="0 0 0 0 0 0 0 0 0 0 0 0 0 0 0 0 0 0 127 0" result="hardAlpha"/>
<feOffset dx="1.88235" dy="1.88235"/>
<feGaussianBlur stdDeviation="0.941176"/>
<feComposite in2="hardAlpha" operator="out"/>
<feColorMatrix type="matrix" values="0 0 0 0 0 0 0 0 0 0 0 0 0 0 0 0 0 0 0.1 0"/>
<feBlend mode="normal" in2="BackgroundImageFix" result="effect1_dropShadow_787_25089"/>
<feBlend mode="normal" in="SourceGraphic" in2="effect1_dropShadow_787_25089" result="shape"/>
</filter>
</defs>
</svg>
