<svg width="105" height="75" viewBox="0 0 105 75" fill="none" xmlns="http://www.w3.org/2000/svg">
<g id="Group 40" filter="url(#filter0_d_1318_334)">
<g id="Group 26">
<g id="Group 22">
<circle id="Ellipse 58" cx="12.4354" cy="50.2034" r="12.0187" fill="#DBDBFF" stroke="#DBDBFF" stroke-width="0.588235"/>
<circle id="Ellipse 59" cx="87.2782" cy="50.2034" r="12.0187" fill="#DBDBFF" stroke="#DBDBFF" stroke-width="0.588235"/>
<rect id="Rectangle 8" x="12.488" y="38.1847" width="74.7373" height="24.0374" fill="#DBDBFF" stroke="#DBDBFF" stroke-width="0.588235"/>
</g>
<g id="Group 23">
<circle id="Ellipse 58_2" cx="49.8566" cy="12.7821" r="12.0187" transform="rotate(90 49.8566 12.7821)" fill="#DBDBFF" stroke="#DBDBFF" stroke-width="0.588235"/>
<rect id="Rectangle 8_2" x="61.8753" y="12.8351" width="74.7373" height="24.0374" transform="rotate(90 61.8753 12.8351)" fill="#DBDBFF" stroke="#DBDBFF" stroke-width="0.588235"/>
</g>
<g id="Group 24">
<circle id="Ellipse 58_3" cx="76.3173" cy="23.7432" r="12.0187" transform="rotate(135 76.3173 23.7432)" fill="#DBDBFF" stroke="#DBDBFF" stroke-width="0.588235"/>
<circle id="Ellipse 59_2" cx="23.3956" cy="76.665" r="12.0187" transform="rotate(135 23.3956 76.665)" fill="#DBDBFF" stroke="#DBDBFF" stroke-width="0.588235"/>
<rect id="Rectangle 8_3" x="84.7786" y="32.2783" width="74.7373" height="24.0374" transform="rotate(135 84.7786 32.2783)" fill="#DBDBFF" stroke="#DBDBFF" stroke-width="0.588235"/>
</g>
<g id="Group 25">
<circle id="Ellipse 58_4" cx="76.3176" cy="76.6637" r="12.0187" transform="rotate(-135 76.3176 76.6637)" fill="#DBDBFF" stroke="#DBDBFF" stroke-width="0.588235"/>
<circle id="Ellipse 59_3" cx="23.3958" cy="23.7423" r="12.0187" transform="rotate(-135 23.3958 23.7423)" fill="#DBDBFF" stroke="#DBDBFF" stroke-width="0.588235"/>
<rect id="Rectangle 8_4" x="67.7817" y="85.1256" width="74.7373" height="24.0374" transform="rotate(-135 67.7817 85.1256)" fill="#DBDBFF" stroke="#DBDBFF" stroke-width="0.588235"/>
<path id="Vector 6" d="M47.4424 55.7563C47.3619 56.2392 46.863 57.2049 45.511 57.2049" stroke="#DBDBFF" stroke-width="0.588235" stroke-linecap="round"/>
</g>
</g>
<g id="Ellipse 53">
<ellipse cx="50.3396" cy="44.1682" rx="1.93142" ry="2.41428" fill="#1C1D1F"/>
<ellipse cx="50.3396" cy="44.1682" rx="1.93142" ry="2.41428" fill="black" fill-opacity="0.2"/>
<ellipse cx="50.3396" cy="44.1682" rx="1.93142" ry="2.41428" fill="black" fill-opacity="0.2"/>
<ellipse cx="50.3396" cy="44.1682" rx="1.93142" ry="2.41428" fill="black" fill-opacity="0.2"/>
<ellipse cx="50.3396" cy="44.1682" rx="1.93142" ry="2.41428" fill="black" fill-opacity="0.2"/>
<ellipse cx="50.3396" cy="44.1682" rx="1.93142" ry="2.41428" fill="black" fill-opacity="0.2"/>
</g>
<g id="Ellipse 54">
<circle cx="55.4096" cy="43.4431" r="8.3446" stroke="#1C1D1F" stroke-width="1.17647"/>
<circle cx="55.4096" cy="43.4431" r="8.3446" stroke="black" stroke-opacity="0.2" stroke-width="1.17647"/>
<circle cx="55.4096" cy="43.4431" r="8.3446" stroke="black" stroke-opacity="0.2" stroke-width="1.17647"/>
<circle cx="55.4096" cy="43.4431" r="8.3446" stroke="black" stroke-opacity="0.2" stroke-width="1.17647"/>
<circle cx="55.4096" cy="43.4431" r="8.3446" stroke="black" stroke-opacity="0.2" stroke-width="1.17647"/>
<circle cx="55.4096" cy="43.4431" r="8.3446" stroke="black" stroke-opacity="0.2" stroke-width="1.17647"/>
</g>
<g id="Ellipse 55">
<path d="M46.9597 45.1333C46.6426 44.8163 46.2662 44.5648 45.852 44.3932C45.4377 44.2216 44.9938 44.1333 44.5454 44.1333C44.097 44.1333 43.653 44.2216 43.2388 44.3932C42.8245 44.5648 42.4482 44.8163 42.1311 45.1333" stroke="#1C1D1F" stroke-width="1.17647" stroke-linecap="round"/>
<path d="M46.9597 45.1333C46.6426 44.8163 46.2662 44.5648 45.852 44.3932C45.4377 44.2216 44.9938 44.1333 44.5454 44.1333C44.097 44.1333 43.653 44.2216 43.2388 44.3932C42.8245 44.5648 42.4482 44.8163 42.1311 45.1333" stroke="black" stroke-opacity="0.2" stroke-width="1.17647" stroke-linecap="round"/>
<path d="M46.9597 45.1333C46.6426 44.8163 46.2662 44.5648 45.852 44.3932C45.4377 44.2216 44.9938 44.1333 44.5454 44.1333C44.097 44.1333 43.653 44.2216 43.2388 44.3932C42.8245 44.5648 42.4482 44.8163 42.1311 45.1333" stroke="black" stroke-opacity="0.2" stroke-width="1.17647" stroke-linecap="round"/>
<path d="M46.9597 45.1333C46.6426 44.8163 46.2662 44.5648 45.852 44.3932C45.4377 44.2216 44.9938 44.1333 44.5454 44.1333C44.097 44.1333 43.653 44.2216 43.2388 44.3932C42.8245 44.5648 42.4482 44.8163 42.1311 45.1333" stroke="black" stroke-opacity="0.2" stroke-width="1.17647" stroke-linecap="round"/>
<path d="M46.9597 45.1333C46.6426 44.8163 46.2662 44.5648 45.852 44.3932C45.4377 44.2216 44.9938 44.1333 44.5454 44.1333C44.097 44.1333 43.653 44.2216 43.2388 44.3932C42.8245 44.5648 42.4482 44.8163 42.1311 45.1333" stroke="black" stroke-opacity="0.2" stroke-width="1.17647" stroke-linecap="round"/>
<path d="M46.9597 45.1333C46.6426 44.8163 46.2662 44.5648 45.852 44.3932C45.4377 44.2216 44.9938 44.1333 44.5454 44.1333C44.097 44.1333 43.653 44.2216 43.2388 44.3932C42.8245 44.5648 42.4482 44.8163 42.1311 45.1333" stroke="black" stroke-opacity="0.2" stroke-width="1.17647" stroke-linecap="round"/>
</g>
<g id="Ellipse 56">
<ellipse cx="37.7852" cy="44.1682" rx="1.93142" ry="2.41428" fill="#1C1D1F"/>
<ellipse cx="37.7852" cy="44.1682" rx="1.93142" ry="2.41428" fill="black" fill-opacity="0.2"/>
<ellipse cx="37.7852" cy="44.1682" rx="1.93142" ry="2.41428" fill="black" fill-opacity="0.2"/>
<ellipse cx="37.7852" cy="44.1682" rx="1.93142" ry="2.41428" fill="black" fill-opacity="0.2"/>
<ellipse cx="37.7852" cy="44.1682" rx="1.93142" ry="2.41428" fill="black" fill-opacity="0.2"/>
<ellipse cx="37.7852" cy="44.1682" rx="1.93142" ry="2.41428" fill="black" fill-opacity="0.2"/>
</g>
<g id="Ellipse 57">
<ellipse cx="44.3039" cy="47.3062" rx="2.65571" ry="1.69" fill="#1C1D1F"/>
<ellipse cx="44.3039" cy="47.3062" rx="2.65571" ry="1.69" fill="black" fill-opacity="0.2"/>
<ellipse cx="44.3039" cy="47.3062" rx="2.65571" ry="1.69" fill="black" fill-opacity="0.2"/>
<ellipse cx="44.3039" cy="47.3062" rx="2.65571" ry="1.69" fill="black" fill-opacity="0.2"/>
<ellipse cx="44.3039" cy="47.3062" rx="2.65571" ry="1.69" fill="black" fill-opacity="0.2"/>
<ellipse cx="44.3039" cy="47.3062" rx="2.65571" ry="1.69" fill="black" fill-opacity="0.2"/>
</g>
<g id="Ellipse 68">
<path d="M42.9411 53.6021C43.4142 53.8752 43.9364 54.0524 44.4779 54.1237C45.0195 54.195 45.5698 54.159 46.0974 54.0176C46.625 53.8762 47.1196 53.6323 47.553 53.2998C47.9863 52.9673 48.3499 52.5526 48.623 52.0796" stroke="#1C1D1F" stroke-width="1.17647" stroke-linecap="round"/>
<path d="M42.9411 53.6021C43.4142 53.8752 43.9364 54.0524 44.4779 54.1237C45.0195 54.195 45.5698 54.159 46.0974 54.0176C46.625 53.8762 47.1196 53.6323 47.553 53.2998C47.9863 52.9673 48.3499 52.5526 48.623 52.0796" stroke="black" stroke-opacity="0.2" stroke-width="1.17647" stroke-linecap="round"/>
<path d="M42.9411 53.6021C43.4142 53.8752 43.9364 54.0524 44.4779 54.1237C45.0195 54.195 45.5698 54.159 46.0974 54.0176C46.625 53.8762 47.1196 53.6323 47.553 53.2998C47.9863 52.9673 48.3499 52.5526 48.623 52.0796" stroke="black" stroke-opacity="0.2" stroke-width="1.17647" stroke-linecap="round"/>
<path d="M42.9411 53.6021C43.4142 53.8752 43.9364 54.0524 44.4779 54.1237C45.0195 54.195 45.5698 54.159 46.0974 54.0176C46.625 53.8762 47.1196 53.6323 47.553 53.2998C47.9863 52.9673 48.3499 52.5526 48.623 52.0796" stroke="black" stroke-opacity="0.2" stroke-width="1.17647" stroke-linecap="round"/>
<path d="M42.9411 53.6021C43.4142 53.8752 43.9364 54.0524 44.4779 54.1237C45.0195 54.195 45.5698 54.159 46.0974 54.0176C46.625 53.8762 47.1196 53.6323 47.553 53.2998C47.9863 52.9673 48.3499 52.5526 48.623 52.0796" stroke="black" stroke-opacity="0.2" stroke-width="1.17647" stroke-linecap="round"/>
<path d="M42.9411 53.6021C43.4142 53.8752 43.9364 54.0524 44.4779 54.1237C45.0195 54.195 45.5698 54.159 46.0974 54.0176C46.625 53.8762 47.1196 53.6323 47.553 53.2998C47.9863 52.9673 48.3499 52.5526 48.623 52.0796" stroke="black" stroke-opacity="0.2" stroke-width="1.17647" stroke-linecap="round"/>
</g>
</g>
<defs>
<filter id="filter0_d_1318_334" x="0.122559" y="0.469238" width="104.174" height="104.174" filterUnits="userSpaceOnUse" color-interpolation-filters="sRGB">
<feFlood flood-opacity="0" result="BackgroundImageFix"/>
<feColorMatrix in="SourceAlpha" type="matrix" values="0 0 0 0 0 0 0 0 0 0 0 0 0 0 0 0 0 0 127 0" result="hardAlpha"/>
<feOffset dx="2.35294" dy="2.35294"/>
<feGaussianBlur stdDeviation="1.17647"/>
<feComposite in2="hardAlpha" operator="out"/>
<feColorMatrix type="matrix" values="0 0 0 0 0 0 0 0 0 0 0 0 0 0 0 0 0 0 0.1 0"/>
<feBlend mode="normal" in2="BackgroundImageFix" result="effect1_dropShadow_1318_334"/>
<feBlend mode="normal" in="SourceGraphic" in2="effect1_dropShadow_1318_334" result="shape"/>
</filter>
</defs>
</svg>
