<svg width="107" height="130" viewBox="0 0 107 130" fill="none" xmlns="http://www.w3.org/2000/svg">
<mask id="mask0_1429_3324" style="mask-type:alpha" maskUnits="userSpaceOnUse" x="0" y="0" width="107" height="130">
<rect width="107" height="130" rx="12" fill="#DBDBFF"/>
</mask>
<g mask="url(#mask0_1429_3324)">
<path d="M39.8184 31.2673C39.8184 40.194 32.2479 47.4305 22.9092 47.4305C13.5705 47.4305 6 40.194 6 31.2673C6 22.3406 13.5705 15.104 22.9092 15.104C32.2479 15.104 39.8184 22.3406 39.8184 31.2673Z" fill="#DBDBFF"/>
<path d="M142.6 31.2672C142.6 40.1939 135.03 47.4304 125.691 47.4304C116.352 47.4304 108.782 40.1939 108.782 31.2672C108.782 22.3405 116.352 15.104 125.691 15.104C135.03 15.104 142.6 22.3405 142.6 31.2672Z" fill="#DBDBFF"/>
<path d="M22.5775 15.104H126.022V47.4304H22.5775V15.104Z" fill="#DBDBFF"/>
<path d="M74.3 -1.69332C64.9613 -1.69332 57.3907 -8.92984 57.3907 -17.8565C57.3907 -26.7833 64.9613 -34.0198 74.3 -34.0198C83.6387 -34.0198 91.2092 -26.7833 91.2092 -17.8565C91.2092 -8.92984 83.6387 -1.69332 74.3 -1.69332Z" fill="#DBDBFF"/>
<path d="M74.3004 96.5534C64.9617 96.5534 57.3912 89.3169 57.3912 80.3902C57.3912 71.4635 64.9617 64.2269 74.3004 64.2269C83.6391 64.2269 91.2096 71.4635 91.2096 80.3902C91.2096 89.3169 83.6391 96.5534 74.3004 96.5534Z" fill="#DBDBFF"/>
<path d="M91.2096 -18.1728V80.7081H57.3912L57.3912 -18.1728H91.2096Z" fill="#DBDBFF"/>
<path d="M98.682 7.96148C92.0785 1.64935 92.0785 -8.58464 98.682 -14.8968C105.285 -21.2089 115.992 -21.2089 122.595 -14.8968C129.199 -8.58464 129.199 1.64935 122.595 7.96148C115.992 14.2736 105.285 14.2736 98.682 7.96148Z" fill="#DBDBFF"/>
<path d="M26.0045 77.4326C19.4011 71.1204 19.4011 60.8864 26.0045 54.5743C32.608 48.2622 43.3143 48.2622 49.9178 54.5743C56.5212 60.8864 56.5212 71.1204 49.9178 77.4326C43.3143 83.7447 32.608 83.7447 26.0045 77.4326Z" fill="#DBDBFF"/>
<path d="M122.83 7.73674L49.6837 77.6561L25.7705 54.7978L98.9169 -15.1215L122.83 7.73674Z" fill="#DBDBFF"/>
<path d="M98.6826 54.5734C105.286 48.2613 115.992 48.2613 122.596 54.5734C129.199 60.8856 129.199 71.1195 122.596 77.4317C115.992 83.7438 105.286 83.7438 98.6826 77.4317C92.0792 71.1195 92.0792 60.8856 98.6826 54.5734Z" fill="#DBDBFF"/>
<path d="M26.005 -14.8975C32.6085 -21.2096 43.3148 -21.2097 49.9183 -14.8975C56.5217 -8.58539 56.5217 1.6486 49.9183 7.96074C43.3148 14.2729 32.6085 14.2729 26.005 7.96074C19.4015 1.64861 19.4015 -8.58538 26.005 -14.8975Z" fill="#DBDBFF"/>
<path d="M98.9169 77.6568L25.7705 7.73743L49.6838 -15.1208L122.83 54.7985L98.9169 77.6568Z" fill="#DBDBFF"/>
<path d="M70.9848 38.5574C70.8743 39.1913 70.1892 40.459 68.3324 40.459M39.8184 31.2673C39.8184 40.194 32.2479 47.4305 22.9092 47.4305C13.5705 47.4305 6 40.194 6 31.2673C6 22.3406 13.5705 15.104 22.9092 15.104C32.2479 15.104 39.8184 22.3406 39.8184 31.2673ZM142.6 31.2672C142.6 40.1939 135.03 47.4304 125.691 47.4304C116.352 47.4304 108.782 40.1939 108.782 31.2672C108.782 22.3405 116.352 15.104 125.691 15.104C135.03 15.104 142.6 22.3405 142.6 31.2672ZM22.5775 15.104H126.022V47.4304H22.5775V15.104ZM74.3 -1.69332C64.9613 -1.69332 57.3907 -8.92984 57.3907 -17.8565C57.3907 -26.7833 64.9613 -34.0198 74.3 -34.0198C83.6387 -34.0198 91.2092 -26.7833 91.2092 -17.8565C91.2092 -8.92984 83.6387 -1.69332 74.3 -1.69332ZM74.3004 96.5534C64.9617 96.5534 57.3912 89.3169 57.3912 80.3902C57.3912 71.4635 64.9617 64.2269 74.3004 64.2269C83.6391 64.2269 91.2096 71.4635 91.2096 80.3902C91.2096 89.3169 83.6391 96.5534 74.3004 96.5534ZM91.2096 -18.1728V80.7081H57.3912L57.3912 -18.1728H91.2096ZM98.682 7.96148C92.0785 1.64935 92.0785 -8.58464 98.682 -14.8968C105.285 -21.2089 115.992 -21.2089 122.595 -14.8968C129.199 -8.58464 129.199 1.64935 122.595 7.96148C115.992 14.2736 105.285 14.2736 98.682 7.96148ZM26.0045 77.4326C19.4011 71.1204 19.4011 60.8864 26.0045 54.5743C32.608 48.2622 43.3143 48.2622 49.9178 54.5743C56.5212 60.8864 56.5212 71.1204 49.9178 77.4326C43.3143 83.7447 32.608 83.7447 26.0045 77.4326ZM122.83 7.73674L49.6837 77.6561L25.7705 54.7978L98.9169 -15.1215L122.83 7.73674ZM98.6826 54.5734C105.286 48.2613 115.992 48.2613 122.596 54.5734C129.199 60.8856 129.199 71.1195 122.596 77.4317C115.992 83.7438 105.286 83.7438 98.6826 77.4317C92.0792 71.1195 92.0792 60.8856 98.6826 54.5734ZM26.005 -14.8975C32.6085 -21.2096 43.3148 -21.2097 49.9183 -14.8975C56.5217 -8.58539 56.5217 1.6486 49.9183 7.96074C43.3148 14.2729 32.6085 14.2729 26.005 7.96074C19.4015 1.64861 19.4015 -8.58538 26.005 -14.8975ZM98.9169 77.6568L25.7705 7.73743L49.6838 -15.1208L122.83 54.7985L98.9169 77.6568Z" stroke="#DBDBFF" stroke-width="0.807824" stroke-linecap="round"/>
<ellipse cx="75.0159" cy="22.7165" rx="2.86254" ry="3.42032" fill="#1C1D1F"/>
<ellipse cx="75.0159" cy="22.7165" rx="2.86254" ry="3.42032" fill="black" fill-opacity="0.2"/>
<ellipse cx="75.0159" cy="22.7165" rx="2.86254" ry="3.42032" fill="black" fill-opacity="0.2"/>
<ellipse cx="75.0159" cy="22.7165" rx="2.86254" ry="3.42032" fill="black" fill-opacity="0.2"/>
<ellipse cx="75.0159" cy="22.7165" rx="2.86254" ry="3.42032" fill="black" fill-opacity="0.2"/>
<ellipse cx="75.0159" cy="22.7165" rx="2.86254" ry="3.42032" fill="black" fill-opacity="0.2"/>
<path d="M94.8977 21.6891C94.8977 28.1602 89.3981 33.4725 82.5303 33.4725C75.6624 33.4725 70.1628 28.1602 70.1628 21.6891C70.1628 15.218 75.6624 9.90575 82.5303 9.90575C89.3981 9.90575 94.8977 15.218 94.8977 21.6891Z" stroke="#1C1D1F" stroke-width="1.74363"/>
<path d="M94.8977 21.6891C94.8977 28.1602 89.3981 33.4725 82.5303 33.4725C75.6624 33.4725 70.1628 28.1602 70.1628 21.6891C70.1628 15.218 75.6624 9.90575 82.5303 9.90575C89.3981 9.90575 94.8977 15.218 94.8977 21.6891Z" stroke="black" stroke-opacity="0.2" stroke-width="1.74363"/>
<path d="M94.8977 21.6891C94.8977 28.1602 89.3981 33.4725 82.5303 33.4725C75.6624 33.4725 70.1628 28.1602 70.1628 21.6891C70.1628 15.218 75.6624 9.90575 82.5303 9.90575C89.3981 9.90575 94.8977 15.218 94.8977 21.6891Z" stroke="black" stroke-opacity="0.2" stroke-width="1.74363"/>
<path d="M94.8977 21.6891C94.8977 28.1602 89.3981 33.4725 82.5303 33.4725C75.6624 33.4725 70.1628 28.1602 70.1628 21.6891C70.1628 15.218 75.6624 9.90575 82.5303 9.90575C89.3981 9.90575 94.8977 15.218 94.8977 21.6891Z" stroke="black" stroke-opacity="0.2" stroke-width="1.74363"/>
<path d="M94.8977 21.6891C94.8977 28.1602 89.3981 33.4725 82.5303 33.4725C75.6624 33.4725 70.1628 28.1602 70.1628 21.6891C70.1628 15.218 75.6624 9.90575 82.5303 9.90575C89.3981 9.90575 94.8977 15.218 94.8977 21.6891Z" stroke="black" stroke-opacity="0.2" stroke-width="1.74363"/>
<path d="M94.8977 21.6891C94.8977 28.1602 89.3981 33.4725 82.5303 33.4725C75.6624 33.4725 70.1628 28.1602 70.1628 21.6891C70.1628 15.218 75.6624 9.90575 82.5303 9.90575C89.3981 9.90575 94.8977 15.218 94.8977 21.6891Z" stroke="black" stroke-opacity="0.2" stroke-width="1.74363"/>
<path d="M70.0065 24.084C69.5366 23.6348 68.9787 23.2785 68.3648 23.0354C67.7508 22.7924 67.0928 22.6672 66.4283 22.6672C65.7637 22.6672 65.1057 22.7924 64.4918 23.0354C63.8778 23.2785 63.32 23.6348 62.8501 24.084" stroke="#1C1D1F" stroke-width="1.74363" stroke-linecap="round"/>
<path d="M70.0065 24.084C69.5366 23.6348 68.9787 23.2785 68.3648 23.0354C67.7508 22.7924 67.0928 22.6672 66.4283 22.6672C65.7637 22.6672 65.1057 22.7924 64.4918 23.0354C63.8778 23.2785 63.32 23.6348 62.8501 24.084" stroke="black" stroke-opacity="0.2" stroke-width="1.74363" stroke-linecap="round"/>
<path d="M70.0065 24.084C69.5366 23.6348 68.9787 23.2785 68.3648 23.0354C67.7508 22.7924 67.0928 22.6672 66.4283 22.6672C65.7637 22.6672 65.1057 22.7924 64.4918 23.0354C63.8778 23.2785 63.32 23.6348 62.8501 24.084" stroke="black" stroke-opacity="0.2" stroke-width="1.74363" stroke-linecap="round"/>
<path d="M70.0065 24.084C69.5366 23.6348 68.9787 23.2785 68.3648 23.0354C67.7508 22.7924 67.0928 22.6672 66.4283 22.6672C65.7637 22.6672 65.1057 22.7924 64.4918 23.0354C63.8778 23.2785 63.32 23.6348 62.8501 24.084" stroke="black" stroke-opacity="0.2" stroke-width="1.74363" stroke-linecap="round"/>
<path d="M70.0065 24.084C69.5366 23.6348 68.9787 23.2785 68.3648 23.0354C67.7508 22.7924 67.0928 22.6672 66.4283 22.6672C65.7637 22.6672 65.1057 22.7924 64.4918 23.0354C63.8778 23.2785 63.32 23.6348 62.8501 24.084" stroke="black" stroke-opacity="0.2" stroke-width="1.74363" stroke-linecap="round"/>
<path d="M70.0065 24.084C69.5366 23.6348 68.9787 23.2785 68.3648 23.0354C67.7508 22.7924 67.0928 22.6672 66.4283 22.6672C65.7637 22.6672 65.1057 22.7924 64.4918 23.0354C63.8778 23.2785 63.32 23.6348 62.8501 24.084" stroke="black" stroke-opacity="0.2" stroke-width="1.74363" stroke-linecap="round"/>
<ellipse cx="56.4094" cy="22.7165" rx="2.86254" ry="3.42032" fill="#1C1D1F"/>
<ellipse cx="56.4094" cy="22.7165" rx="2.86254" ry="3.42032" fill="black" fill-opacity="0.2"/>
<ellipse cx="56.4094" cy="22.7165" rx="2.86254" ry="3.42032" fill="black" fill-opacity="0.2"/>
<ellipse cx="56.4094" cy="22.7165" rx="2.86254" ry="3.42032" fill="black" fill-opacity="0.2"/>
<ellipse cx="56.4094" cy="22.7165" rx="2.86254" ry="3.42032" fill="black" fill-opacity="0.2"/>
<ellipse cx="56.4094" cy="22.7165" rx="2.86254" ry="3.42032" fill="black" fill-opacity="0.2"/>
<ellipse cx="66.0708" cy="27.1625" rx="3.936" ry="2.39422" fill="#1C1D1F"/>
<ellipse cx="66.0708" cy="27.1625" rx="3.936" ry="2.39422" fill="black" fill-opacity="0.2"/>
<ellipse cx="66.0708" cy="27.1625" rx="3.936" ry="2.39422" fill="black" fill-opacity="0.2"/>
<ellipse cx="66.0708" cy="27.1625" rx="3.936" ry="2.39422" fill="black" fill-opacity="0.2"/>
<ellipse cx="66.0708" cy="27.1625" rx="3.936" ry="2.39422" fill="black" fill-opacity="0.2"/>
<ellipse cx="66.0708" cy="27.1625" rx="3.936" ry="2.39422" fill="black" fill-opacity="0.2"/>
<path d="M64.0506 36.0822C64.7517 36.4691 65.5256 36.7202 66.3283 36.8212C67.1309 36.9222 67.9465 36.8711 68.7284 36.6709C69.5104 36.4706 70.2435 36.125 70.8857 35.6539C71.528 35.1829 72.0669 34.5955 72.4717 33.9253" stroke="#1C1D1F" stroke-width="1.74363" stroke-linecap="round"/>
<path d="M64.0506 36.0822C64.7517 36.4691 65.5256 36.7202 66.3283 36.8212C67.1309 36.9222 67.9465 36.8711 68.7284 36.6709C69.5104 36.4706 70.2435 36.125 70.8857 35.6539C71.528 35.1829 72.0669 34.5955 72.4717 33.9253" stroke="black" stroke-opacity="0.2" stroke-width="1.74363" stroke-linecap="round"/>
<path d="M64.0506 36.0822C64.7517 36.4691 65.5256 36.7202 66.3283 36.8212C67.1309 36.9222 67.9465 36.8711 68.7284 36.6709C69.5104 36.4706 70.2435 36.125 70.8857 35.6539C71.528 35.1829 72.0669 34.5955 72.4717 33.9253" stroke="black" stroke-opacity="0.2" stroke-width="1.74363" stroke-linecap="round"/>
<path d="M64.0506 36.0822C64.7517 36.4691 65.5256 36.7202 66.3283 36.8212C67.1309 36.9222 67.9465 36.8711 68.7284 36.6709C69.5104 36.4706 70.2435 36.125 70.8857 35.6539C71.528 35.1829 72.0669 34.5955 72.4717 33.9253" stroke="black" stroke-opacity="0.2" stroke-width="1.74363" stroke-linecap="round"/>
<path d="M64.0506 36.0822C64.7517 36.4691 65.5256 36.7202 66.3283 36.8212C67.1309 36.9222 67.9465 36.8711 68.7284 36.6709C69.5104 36.4706 70.2435 36.125 70.8857 35.6539C71.528 35.1829 72.0669 34.5955 72.4717 33.9253" stroke="black" stroke-opacity="0.2" stroke-width="1.74363" stroke-linecap="round"/>
<path d="M64.0506 36.0822C64.7517 36.4691 65.5256 36.7202 66.3283 36.8212C67.1309 36.9222 67.9465 36.8711 68.7284 36.6709C69.5104 36.4706 70.2435 36.125 70.8857 35.6539C71.528 35.1829 72.0669 34.5955 72.4717 33.9253" stroke="black" stroke-opacity="0.2" stroke-width="1.74363" stroke-linecap="round"/>
</g>
</svg>
