<?xml version="1.0" standalone="no"?>
<!DOCTYPE svg PUBLIC "-//W3C//DTD SVG 20010904//EN"
 "http://www.w3.org/TR/2001/REC-SVG-20010904/DTD/svg10.dtd">
<svg version="1.0" xmlns="http://www.w3.org/2000/svg"
 width="176.000000pt" height="184.000000pt" viewBox="0 0 176.000000 184.000000"
 preserveAspectRatio="xMidYMid meet">

<g transform="translate(0.000000,184.000000) scale(0.100000,-0.100000)"
fill="#000000" stroke="none">
<path d="M887 999 c-11 -6 -25 -26 -33 -45 -9 -22 -21 -34 -34 -34 -15 0 -20
-7 -20 -26 0 -23 3 -26 30 -22 17 3 30 1 30 -4 0 -16 67 -41 94 -34 97 24 83
177 -16 176 -18 0 -41 -5 -51 -11z m98 -24 c42 -41 30 -102 -24 -124 -24 -10
-34 -10 -60 3 -17 9 -31 18 -31 20 0 3 -3 13 -6 23 -4 14 -4 15 4 4 11 -16 32
-7 32 14 0 20 -21 30 -31 14 -6 -11 -9 -9 -9 8 0 27 44 63 77 63 13 0 35 -11
48 -25z m-141 -74 c4 -5 -3 -7 -14 -4 -23 6 -26 13 -6 13 8 0 17 -4 20 -9z"/>
<path d="M744 925 c-9 -23 14 -45 26 -25 5 8 8 19 7 24 -6 17 -27 18 -33 1z"/>
<path d="M854 831 c-5 -5 -18 -11 -29 -14 l-20 -5 20 -1 c22 -1 52 15 44 23
-3 3 -10 2 -15 -3z"/>
<path d="M1315 740 c-3 -5 -33 -10 -66 -10 -33 0 -58 -4 -55 -9 9 -14 119 -3
135 14 10 9 11 15 4 15 -7 0 -15 -4 -18 -10z"/>
<path d="M492 725 c9 -9 68 -12 74 -4 3 5 -14 9 -37 9 -23 0 -40 -2 -37 -5z"/>
<path d="M1268 595 c3 -31 -1 -54 -13 -71 -21 -33 -73 -64 -107 -64 -27 0 -28
-2 -28 -50 0 -28 5 -50 10 -50 40 0 255 116 293 157 16 18 14 19 -53 16 -69
-2 -70 -2 -70 23 0 21 -25 84 -33 84 -1 0 -1 -20 1 -45z"/>
<path d="M310 534 c0 -10 168 -113 219 -134 116 -49 111 -49 111 9 0 47 -2 51
-24 51 -37 0 -74 17 -99 44 -21 22 -33 25 -115 29 -51 2 -92 2 -92 1z"/>
<path d="M860 335 c0 -8 9 -15 20 -15 11 0 20 7 20 15 0 8 -9 15 -20 15 -11 0
-20 -7 -20 -15z"/>
</g>
</svg>
