<?xml version="1.0" standalone="no"?>
<!DOCTYPE svg PUBLIC "-//W3C//DTD SVG 20010904//EN"
 "http://www.w3.org/TR/2001/REC-SVG-20010904/DTD/svg10.dtd">
<svg version="1.0" xmlns="http://www.w3.org/2000/svg"
 width="176.000000pt" height="184.000000pt" viewBox="0 0 176.000000 184.000000"
 preserveAspectRatio="xMidYMid meet">

<g transform="translate(0.000000,184.000000) scale(0.100000,-0.100000)"
fill="#000000" stroke="none">
<path d="M887 999 c-11 -6 -25 -26 -33 -45 -9 -22 -21 -34 -34 -34 -15 0 -20
-7 -20 -26 0 -23 3 -26 30 -22 17 3 30 1 30 -4 0 -16 67 -41 94 -34 97 24 83
177 -16 176 -18 0 -41 -5 -51 -11z m98 -24 c42 -41 30 -102 -24 -124 -24 -10
-34 -10 -60 3 -17 9 -31 18 -31 20 0 3 -3 13 -6 23 -4 14 -4 15 4 4 11 -16 32
-7 32 14 0 20 -21 30 -31 14 -6 -11 -9 -9 -9 8 0 27 44 63 77 63 13 0 35 -11
48 -25z m-141 -74 c4 -5 -3 -7 -14 -4 -23 6 -26 13 -6 13 8 0 17 -4 20 -9z"/>
<path d="M744 925 c-9 -23 14 -45 26 -25 5 8 8 19 7 24 -6 17 -27 18 -33 1z"/>
<path d="M822 819 c1 -13 8 -23 13 -21 15 3 12 35 -3 40 -9 3 -13 -3 -10 -19z"/>
<path d="M1271 584 c-1 -65 -61 -124 -126 -124 -23 0 -25 -3 -25 -50 0 -28 5
-50 10 -50 38 0 280 129 280 149 0 4 -19 5 -43 1 -56 -8 -67 -4 -67 28 -1 15
-7 41 -15 57 l-13 30 -1 -41z"/>
<path d="M350 506 c0 -10 134 -89 186 -110 109 -44 104 -44 104 12 l0 49 -40
6 c-23 3 -53 13 -67 23 -19 12 -52 18 -105 20 -43 2 -78 1 -78 0z"/>
<path d="M860 335 c0 -8 9 -15 20 -15 11 0 20 7 20 15 0 8 -9 15 -20 15 -11 0
-20 -7 -20 -15z"/>
</g>
</svg>
