<svg width="14" height="9" viewBox="0 0 14 9" fill="none" xmlns="http://www.w3.org/2000/svg">
<g id="Vector">
<path d="M7.00249 8.49251C6.74249 8.49251 6.4925 8.3925 6.2925 8.2025L0.2925 2.2025C-0.0975 1.8125 -0.0975 1.1825 0.2925 0.7925C0.6825 0.4025 1.3125 0.4025 1.7025 0.7925L6.9925 6.08251L12.2825 0.7925C12.6725 0.4025 13.3025 0.4025 13.6925 0.7925C14.0825 1.1825 14.0825 1.8125 13.6925 2.2025L7.69249 8.2025C7.49249 8.4025 7.2425 8.49251 6.9825 8.49251H7.00249Z" fill="#1C1D1F"/>
<path d="M7.00249 8.49251C6.74249 8.49251 6.4925 8.3925 6.2925 8.2025L0.2925 2.2025C-0.0975 1.8125 -0.0975 1.1825 0.2925 0.7925C0.6825 0.4025 1.3125 0.4025 1.7025 0.7925L6.9925 6.08251L12.2825 0.7925C12.6725 0.4025 13.3025 0.4025 13.6925 0.7925C14.0825 1.1825 14.0825 1.8125 13.6925 2.2025L7.69249 8.2025C7.49249 8.4025 7.2425 8.49251 6.9825 8.49251H7.00249Z" fill="black" fill-opacity="0.2"/>
<path d="M7.00249 8.49251C6.74249 8.49251 6.4925 8.3925 6.2925 8.2025L0.2925 2.2025C-0.0975 1.8125 -0.0975 1.1825 0.2925 0.7925C0.6825 0.4025 1.3125 0.4025 1.7025 0.7925L6.9925 6.08251L12.2825 0.7925C12.6725 0.4025 13.3025 0.4025 13.6925 0.7925C14.0825 1.1825 14.0825 1.8125 13.6925 2.2025L7.69249 8.2025C7.49249 8.4025 7.2425 8.49251 6.9825 8.49251H7.00249Z" fill="black" fill-opacity="0.2"/>
<path d="M7.00249 8.49251C6.74249 8.49251 6.4925 8.3925 6.2925 8.2025L0.2925 2.2025C-0.0975 1.8125 -0.0975 1.1825 0.2925 0.7925C0.6825 0.4025 1.3125 0.4025 1.7025 0.7925L6.9925 6.08251L12.2825 0.7925C12.6725 0.4025 13.3025 0.4025 13.6925 0.7925C14.0825 1.1825 14.0825 1.8125 13.6925 2.2025L7.69249 8.2025C7.49249 8.4025 7.2425 8.49251 6.9825 8.49251H7.00249Z" fill="black" fill-opacity="0.2"/>
<path d="M7.00249 8.49251C6.74249 8.49251 6.4925 8.3925 6.2925 8.2025L0.2925 2.2025C-0.0975 1.8125 -0.0975 1.1825 0.2925 0.7925C0.6825 0.4025 1.3125 0.4025 1.7025 0.7925L6.9925 6.08251L12.2825 0.7925C12.6725 0.4025 13.3025 0.4025 13.6925 0.7925C14.0825 1.1825 14.0825 1.8125 13.6925 2.2025L7.69249 8.2025C7.49249 8.4025 7.2425 8.49251 6.9825 8.49251H7.00249Z" fill="black" fill-opacity="0.2"/>
<path d="M7.00249 8.49251C6.74249 8.49251 6.4925 8.3925 6.2925 8.2025L0.2925 2.2025C-0.0975 1.8125 -0.0975 1.1825 0.2925 0.7925C0.6825 0.4025 1.3125 0.4025 1.7025 0.7925L6.9925 6.08251L12.2825 0.7925C12.6725 0.4025 13.3025 0.4025 13.6925 0.7925C14.0825 1.1825 14.0825 1.8125 13.6925 2.2025L7.69249 8.2025C7.49249 8.4025 7.2425 8.49251 6.9825 8.49251H7.00249Z" fill="black" fill-opacity="0.2"/>
</g>
</svg>
