<svg width="148" height="188" viewBox="0 0 148 188" fill="none" xmlns="http://www.w3.org/2000/svg">
<g style="mix-blend-mode:multiply">
<ellipse cx="74" cy="168.5" rx="69" ry="9.5" fill="#9F97FC"/>
</g>
<path d="M76.844 115.707C76.844 114.206 78.0609 112.989 79.562 112.989H102.393C103.894 112.989 105.111 114.206 105.111 115.707V165.175C105.111 166.676 103.894 167.892 102.393 167.892H79.562C78.0609 167.892 76.844 166.676 76.844 165.174V115.707Z" fill="#DBDBFF"/>
<rect x="42.054" y="112.989" width="28.267" height="54.9032" rx="2.71798" fill="#DBDBFF"/>
<path d="M116.527 167.893C116.527 163.279 114.837 158.855 111.83 155.592C108.822 152.33 104.743 150.498 100.49 150.498C96.2374 150.498 92.1586 152.33 89.1512 155.592C86.1439 158.855 84.4543 163.279 84.4543 167.893L100.49 167.893H116.527Z" fill="#DBDBFF"/>
<path d="M64.3412 167.893C64.3412 163.279 62.6517 158.855 59.6444 155.592C56.637 152.33 52.5582 150.498 48.3051 150.498C44.0521 150.498 39.9733 152.33 36.9659 155.592C33.9586 158.855 32.269 163.279 32.269 167.893L48.3051 167.893H64.3412Z" fill="#DBDBFF"/>
<g filter="url(#filter0_d_326_5140)">
<circle cx="23.1867" cy="73.4794" r="16.2576" fill="#DBDBFF" stroke="#DBDBFF" stroke-width="0.795699"/>
<circle cx="124.425" cy="73.4794" r="16.2576" fill="#DBDBFF" stroke="#DBDBFF" stroke-width="0.795699"/>
<rect x="23.258" y="57.2218" width="101.096" height="32.5151" fill="#DBDBFF" stroke="#DBDBFF" stroke-width="0.795699"/>
<circle cx="73.8063" cy="22.8602" r="16.2576" transform="rotate(90 73.8063 22.8602)" fill="#DBDBFF" stroke="#DBDBFF" stroke-width="0.795699"/>
<circle cx="73.8065" cy="124.099" r="16.2576" transform="rotate(90 73.8065 124.099)" fill="#DBDBFF" stroke="#DBDBFF" stroke-width="0.795699"/>
<rect x="90.0641" y="22.9318" width="101.096" height="32.5151" transform="rotate(90 90.0641 22.9318)" fill="#DBDBFF" stroke="#DBDBFF" stroke-width="0.795699"/>
<circle cx="109.599" cy="37.6865" r="16.2576" transform="rotate(135 109.599 37.6865)" fill="#DBDBFF" stroke="#DBDBFF" stroke-width="0.795699"/>
<circle cx="38.0128" cy="109.273" r="16.2576" transform="rotate(135 38.0128 109.273)" fill="#DBDBFF" stroke="#DBDBFF" stroke-width="0.795699"/>
<rect x="121.045" y="49.2324" width="101.096" height="32.5151" transform="rotate(135 121.045 49.2324)" fill="#DBDBFF" stroke="#DBDBFF" stroke-width="0.795699"/>
<circle cx="109.6" cy="109.273" r="16.2576" transform="rotate(-135 109.6 109.273)" fill="#DBDBFF" stroke="#DBDBFF" stroke-width="0.795699"/>
<circle cx="38.0129" cy="37.6859" r="16.2576" transform="rotate(-135 38.0129 37.6859)" fill="#DBDBFF" stroke="#DBDBFF" stroke-width="0.795699"/>
<rect x="98.0535" y="120.719" width="101.096" height="32.5151" transform="rotate(-135 98.0535 120.719)" fill="#DBDBFF" stroke="#DBDBFF" stroke-width="0.795699"/>
<path d="M70.5405 80.9912C70.4317 81.6444 69.7568 82.9507 67.928 82.9507" stroke="#DBDBFF" stroke-width="0.795699" stroke-linecap="round"/>
<ellipse cx="74.4593" cy="65.3156" rx="2.61261" ry="3.26577" fill="black"/>
<circle cx="81.3177" cy="64.335" r="11.2876" stroke="black" stroke-width="1.5914"/>
<path d="M69.8872 66.6211C69.4584 66.1922 68.9492 65.852 68.3889 65.6199C67.8286 65.3878 67.228 65.2684 66.6215 65.2684C66.015 65.2684 65.4144 65.3878 64.8541 65.6199C64.2937 65.852 63.7846 66.1922 63.3557 66.6211" stroke="black" stroke-width="1.5914" stroke-linecap="round"/>
<ellipse cx="57.4774" cy="65.3156" rx="2.61261" ry="3.26577" fill="black"/>
<ellipse cx="66.2952" cy="69.5607" rx="3.59234" ry="2.28604" fill="black"/>
<path d="M64.4516 78.077C65.0915 78.4464 65.7979 78.6862 66.5304 78.7827C67.263 78.8791 68.0073 78.8303 68.721 78.6391C69.4347 78.4478 70.1038 78.1179 70.69 77.6681C71.2762 77.2183 71.768 76.6575 72.1375 76.0176" stroke="black" stroke-width="1.5914" stroke-linecap="round"/>
</g>
<defs>
<filter id="filter0_d_326_5140" x="6.53125" y="6.20483" width="140.915" height="140.915" filterUnits="userSpaceOnUse" color-interpolation-filters="sRGB">
<feFlood flood-opacity="0" result="BackgroundImageFix"/>
<feColorMatrix in="SourceAlpha" type="matrix" values="0 0 0 0 0 0 0 0 0 0 0 0 0 0 0 0 0 0 127 0" result="hardAlpha"/>
<feOffset dx="3.1828" dy="3.1828"/>
<feGaussianBlur stdDeviation="1.5914"/>
<feComposite in2="hardAlpha" operator="out"/>
<feColorMatrix type="matrix" values="0 0 0 0 0 0 0 0 0 0 0 0 0 0 0 0 0 0 0.1 0"/>
<feBlend mode="normal" in2="BackgroundImageFix" result="effect1_dropShadow_326_5140"/>
<feBlend mode="normal" in="SourceGraphic" in2="effect1_dropShadow_326_5140" result="shape"/>
</filter>
</defs>
</svg>
