<svg width="84" height="84" fill="none" xmlns="http://www.w3.org/2000/svg"><g filter="url(#a)"><circle cx="9.948" cy="40.164" r="9.615" fill="#DBDBFF" stroke="#DBDBFF" stroke-width=".471"/><circle cx="69.822" cy="40.164" r="9.615" fill="#DBDBFF" stroke="#DBDBFF" stroke-width=".471"/><path fill="#DBDBFF" stroke="#DBDBFF" stroke-width=".471" d="M9.991 30.549h59.79v19.23H9.991z"/><circle cx="39.885" cy="10.227" r="9.615" transform="rotate(90 39.885 10.227)" fill="#DBDBFF" stroke="#DBDBFF" stroke-width=".471"/><circle cx="39.885" cy="70.101" r="9.615" transform="rotate(90 39.885 70.101)" fill="#DBDBFF" stroke="#DBDBFF" stroke-width=".471"/><path fill="#DBDBFF" stroke="#DBDBFF" stroke-width=".471" d="M49.5 10.27v59.79H30.27V10.27z"/><circle cx="61.054" cy="18.996" r="9.615" transform="rotate(135 61.054 18.996)" fill="#DBDBFF" stroke="#DBDBFF" stroke-width=".471"/><circle cx="18.717" cy="61.333" r="9.615" transform="rotate(135 18.717 61.333)" fill="#DBDBFF" stroke="#DBDBFF" stroke-width=".471"/><path fill="#DBDBFF" stroke="#DBDBFF" stroke-width=".471" d="M67.824 25.824 25.546 68.102 11.948 54.504l42.278-42.278z"/><circle cx="61.054" cy="61.332" r="9.615" transform="rotate(-135 61.054 61.332)" fill="#DBDBFF" stroke="#DBDBFF" stroke-width=".471"/><circle cx="18.717" cy="18.994" r="9.615" transform="rotate(-135 18.717 18.994)" fill="#DBDBFF" stroke="#DBDBFF" stroke-width=".471"/><path fill="#DBDBFF" stroke="#DBDBFF" stroke-width=".471" d="M54.225 68.101 11.948 25.823l13.597-13.597 42.278 42.278z"/><path d="M37.954 44.606c-.065.387-.464 1.16-1.545 1.16" stroke="#DBDBFF" stroke-width=".471" stroke-linecap="round"/><ellipse cx="40.272" cy="35.335" rx="1.545" ry="1.931" fill="#1C1D1F"/><ellipse cx="40.272" cy="35.335" rx="1.545" ry="1.931" fill="#000" fill-opacity=".2"/><ellipse cx="40.272" cy="35.335" rx="1.545" ry="1.931" fill="#000" fill-opacity=".2"/><ellipse cx="40.272" cy="35.335" rx="1.545" ry="1.931" fill="#000" fill-opacity=".2"/><ellipse cx="40.272" cy="35.335" rx="1.545" ry="1.931" fill="#000" fill-opacity=".2"/><ellipse cx="40.272" cy="35.335" rx="1.545" ry="1.931" fill="#000" fill-opacity=".2"/><circle cx="44.328" cy="34.756" r="6.676" stroke="#1C1D1F" stroke-width=".941"/><circle cx="44.328" cy="34.756" r="6.676" stroke="#000" stroke-opacity=".2" stroke-width=".941"/><circle cx="44.328" cy="34.756" r="6.676" stroke="#000" stroke-opacity=".2" stroke-width=".941"/><circle cx="44.328" cy="34.756" r="6.676" stroke="#000" stroke-opacity=".2" stroke-width=".941"/><circle cx="44.328" cy="34.756" r="6.676" stroke="#000" stroke-opacity=".2" stroke-width=".941"/><circle cx="44.328" cy="34.756" r="6.676" stroke="#000" stroke-opacity=".2" stroke-width=".941"/><path d="M37.568 36.107a2.732 2.732 0 0 0-3.863 0" stroke="#1C1D1F" stroke-width=".941" stroke-linecap="round"/><path d="M37.568 36.107a2.732 2.732 0 0 0-3.863 0" stroke="#000" stroke-opacity=".2" stroke-width=".941" stroke-linecap="round"/><path d="M37.568 36.107a2.732 2.732 0 0 0-3.863 0" stroke="#000" stroke-opacity=".2" stroke-width=".941" stroke-linecap="round"/><path d="M37.568 36.107a2.732 2.732 0 0 0-3.863 0" stroke="#000" stroke-opacity=".2" stroke-width=".941" stroke-linecap="round"/><path d="M37.568 36.107a2.732 2.732 0 0 0-3.863 0" stroke="#000" stroke-opacity=".2" stroke-width=".941" stroke-linecap="round"/><path d="M37.568 36.107a2.732 2.732 0 0 0-3.863 0" stroke="#000" stroke-opacity=".2" stroke-width=".941" stroke-linecap="round"/><ellipse cx="30.228" cy="35.335" rx="1.545" ry="1.931" fill="#1C1D1F"/><ellipse cx="30.228" cy="35.335" rx="1.545" ry="1.931" fill="#000" fill-opacity=".2"/><ellipse cx="30.228" cy="35.335" rx="1.545" ry="1.931" fill="#000" fill-opacity=".2"/><ellipse cx="30.228" cy="35.335" rx="1.545" ry="1.931" fill="#000" fill-opacity=".2"/><ellipse cx="30.228" cy="35.335" rx="1.545" ry="1.931" fill="#000" fill-opacity=".2"/><ellipse cx="30.228" cy="35.335" rx="1.545" ry="1.931" fill="#000" fill-opacity=".2"/><ellipse cx="35.443" cy="37.846" rx="2.125" ry="1.352" fill="#1C1D1F"/><ellipse cx="35.443" cy="37.846" rx="2.125" ry="1.352" fill="#000" fill-opacity=".2"/><ellipse cx="35.443" cy="37.846" rx="2.125" ry="1.352" fill="#000" fill-opacity=".2"/><ellipse cx="35.443" cy="37.846" rx="2.125" ry="1.352" fill="#000" fill-opacity=".2"/><ellipse cx="35.443" cy="37.846" rx="2.125" ry="1.352" fill="#000" fill-opacity=".2"/><ellipse cx="35.443" cy="37.846" rx="2.125" ry="1.352" fill="#000" fill-opacity=".2"/><path d="M34.353 42.882a3.328 3.328 0 0 0 4.545-1.218" stroke="#1C1D1F" stroke-width=".941" stroke-linecap="round"/><path d="M34.353 42.882a3.328 3.328 0 0 0 4.545-1.218" stroke="#000" stroke-opacity=".2" stroke-width=".941" stroke-linecap="round"/><path d="M34.353 42.882a3.328 3.328 0 0 0 4.545-1.218" stroke="#000" stroke-opacity=".2" stroke-width=".941" stroke-linecap="round"/><path d="M34.353 42.882a3.328 3.328 0 0 0 4.545-1.218" stroke="#000" stroke-opacity=".2" stroke-width=".941" stroke-linecap="round"/><path d="M34.353 42.882a3.328 3.328 0 0 0 4.545-1.218" stroke="#000" stroke-opacity=".2" stroke-width=".941" stroke-linecap="round"/><path d="M34.353 42.882a3.328 3.328 0 0 0 4.545-1.218" stroke="#000" stroke-opacity=".2" stroke-width=".941" stroke-linecap="round"/></g><defs><filter id="a" x=".098" y=".377" width="83.339" height="83.339" filterUnits="userSpaceOnUse" color-interpolation-filters="sRGB"><feFlood flood-opacity="0" result="BackgroundImageFix"/><feColorMatrix in="SourceAlpha" values="0 0 0 0 0 0 0 0 0 0 0 0 0 0 0 0 0 0 127 0" result="hardAlpha"/><feOffset dx="1.882" dy="1.882"/><feGaussianBlur stdDeviation=".941"/><feComposite in2="hardAlpha" operator="out"/><feColorMatrix values="0 0 0 0 0 0 0 0 0 0 0 0 0 0 0 0 0 0 0.1 0"/><feBlend in2="BackgroundImageFix" result="effect1_dropShadow_787_25089"/><feBlend in="SourceGraphic" in2="effect1_dropShadow_787_25089" result="shape"/></filter></defs></svg>