<svg width="14" height="14" viewBox="0 0 14 14" fill="none" xmlns="http://www.w3.org/2000/svg">
<path d="M12.9925 13.9824C12.7325 13.9824 12.4825 13.8824 12.2825 13.6924L6.9925 8.40248L1.7025 13.6924C1.3125 14.0824 0.6825 14.0824 0.2925 13.6924C-0.0975 13.3024 -0.0975 12.6725 0.2925 12.2825L5.5825 6.99245L0.2925 1.70241C-0.0975 1.31241 -0.0975 0.6825 0.2925 0.2925C0.6825 -0.0975 1.3125 -0.0975 1.7025 0.2925L6.9925 5.58242L12.2825 0.2925C12.6725 -0.0975 13.3025 -0.0975 13.6925 0.2925C14.0825 0.6825 14.0825 1.31241 13.6925 1.70241L8.4025 6.99245L13.6925 12.2825C14.0825 12.6725 14.0825 13.3024 13.6925 13.6924C13.4925 13.8924 13.2425 13.9824 12.9825 13.9824H12.9925Z" fill="#73787E"/>
</svg>
