<svg width="61" height="36" viewBox="0 0 61 36" fill="none" xmlns="http://www.w3.org/2000/svg">
<mask id="mask0_1457_11887" style="mask-type:alpha" maskUnits="userSpaceOnUse" x="0" y="0" width="61" height="36">
<rect width="61" height="36" fill="#D9D9D9"/>
</mask>
<g mask="url(#mask0_1457_11887)">
<g filter="url(#filter0_d_1457_11887)">
<circle cx="7.46118" cy="30.1221" r="7.21122" fill="#DBDBFF" stroke="#DBDBFF" stroke-width="0.352941"/>
<circle cx="52.3668" cy="30.1219" r="7.21122" fill="#DBDBFF" stroke="#DBDBFF" stroke-width="0.352941"/>
<rect x="7.49275" y="22.9107" width="44.8424" height="14.4224" fill="#DBDBFF" stroke="#DBDBFF" stroke-width="0.352941"/>
<circle cx="29.9141" cy="7.66931" r="7.21122" transform="rotate(90 29.9141 7.66931)" fill="#DBDBFF" stroke="#DBDBFF" stroke-width="0.352941"/>
<rect x="37.1253" y="7.70113" width="44.8424" height="14.4224" transform="rotate(90 37.1253 7.70113)" fill="#DBDBFF" stroke="#DBDBFF" stroke-width="0.352941"/>
<circle cx="45.7904" cy="14.2456" r="7.21122" transform="rotate(135 45.7904 14.2456)" fill="#DBDBFF" stroke="#DBDBFF" stroke-width="0.352941"/>
<circle cx="14.0376" cy="45.9989" r="7.21122" transform="rotate(135 14.0376 45.9989)" fill="#DBDBFF" stroke="#DBDBFF" stroke-width="0.352941"/>
<rect x="50.8674" y="19.3669" width="44.8424" height="14.4224" transform="rotate(135 50.8674 19.3669)" fill="#DBDBFF" stroke="#DBDBFF" stroke-width="0.352941"/>
<circle cx="45.7905" cy="45.9985" r="7.21122" transform="rotate(-135 45.7905 45.9985)" fill="#DBDBFF" stroke="#DBDBFF" stroke-width="0.352941"/>
<circle cx="14.0375" cy="14.2453" r="7.21122" transform="rotate(-135 14.0375 14.2453)" fill="#DBDBFF" stroke="#DBDBFF" stroke-width="0.352941"/>
<rect x="40.6691" y="51.0755" width="44.8424" height="14.4224" transform="rotate(-135 40.6691 51.0755)" fill="#DBDBFF" stroke="#DBDBFF" stroke-width="0.352941"/>
<path d="M28.4655 33.454C28.4172 33.7437 28.1178 34.3231 27.3066 34.3231" stroke="#DBDBFF" stroke-width="0.352941" stroke-linecap="round"/>
<ellipse cx="30.2038" cy="26.5008" rx="1.15885" ry="1.44857" fill="#1C1D1F"/>
<ellipse cx="30.2038" cy="26.5008" rx="1.15885" ry="1.44857" fill="black" fill-opacity="0.2"/>
<ellipse cx="30.2038" cy="26.5008" rx="1.15885" ry="1.44857" fill="black" fill-opacity="0.2"/>
<ellipse cx="30.2038" cy="26.5008" rx="1.15885" ry="1.44857" fill="black" fill-opacity="0.2"/>
<ellipse cx="30.2038" cy="26.5008" rx="1.15885" ry="1.44857" fill="black" fill-opacity="0.2"/>
<ellipse cx="30.2038" cy="26.5008" rx="1.15885" ry="1.44857" fill="black" fill-opacity="0.2"/>
<circle cx="33.2458" cy="26.066" r="5.00676" stroke="#1C1D1F" stroke-width="0.705882"/>
<circle cx="33.2458" cy="26.066" r="5.00676" stroke="black" stroke-opacity="0.2" stroke-width="0.705882"/>
<circle cx="33.2458" cy="26.066" r="5.00676" stroke="black" stroke-opacity="0.2" stroke-width="0.705882"/>
<circle cx="33.2458" cy="26.066" r="5.00676" stroke="black" stroke-opacity="0.2" stroke-width="0.705882"/>
<circle cx="33.2458" cy="26.066" r="5.00676" stroke="black" stroke-opacity="0.2" stroke-width="0.705882"/>
<circle cx="33.2458" cy="26.066" r="5.00676" stroke="black" stroke-opacity="0.2" stroke-width="0.705882"/>
<path d="M28.1758 27.08C27.9856 26.8897 27.7598 26.7388 27.5112 26.6359C27.2627 26.5329 26.9963 26.4799 26.7273 26.4799C26.4582 26.4799 26.1918 26.5329 25.9433 26.6359C25.6947 26.7388 25.4689 26.8897 25.2787 27.08" stroke="#1C1D1F" stroke-width="0.705882" stroke-linecap="round"/>
<path d="M28.1758 27.08C27.9856 26.8897 27.7598 26.7388 27.5112 26.6359C27.2627 26.5329 26.9963 26.4799 26.7273 26.4799C26.4582 26.4799 26.1918 26.5329 25.9433 26.6359C25.6947 26.7388 25.4689 26.8897 25.2787 27.08" stroke="black" stroke-opacity="0.2" stroke-width="0.705882" stroke-linecap="round"/>
<path d="M28.1758 27.08C27.9856 26.8897 27.7598 26.7388 27.5112 26.6359C27.2627 26.5329 26.9963 26.4799 26.7273 26.4799C26.4582 26.4799 26.1918 26.5329 25.9433 26.6359C25.6947 26.7388 25.4689 26.8897 25.2787 27.08" stroke="black" stroke-opacity="0.2" stroke-width="0.705882" stroke-linecap="round"/>
<path d="M28.1758 27.08C27.9856 26.8897 27.7598 26.7388 27.5112 26.6359C27.2627 26.5329 26.9963 26.4799 26.7273 26.4799C26.4582 26.4799 26.1918 26.5329 25.9433 26.6359C25.6947 26.7388 25.4689 26.8897 25.2787 27.08" stroke="black" stroke-opacity="0.2" stroke-width="0.705882" stroke-linecap="round"/>
<path d="M28.1758 27.08C27.9856 26.8897 27.7598 26.7388 27.5112 26.6359C27.2627 26.5329 26.9963 26.4799 26.7273 26.4799C26.4582 26.4799 26.1918 26.5329 25.9433 26.6359C25.6947 26.7388 25.4689 26.8897 25.2787 27.08" stroke="black" stroke-opacity="0.2" stroke-width="0.705882" stroke-linecap="round"/>
<path d="M28.1758 27.08C27.9856 26.8897 27.7598 26.7388 27.5112 26.6359C27.2627 26.5329 26.9963 26.4799 26.7273 26.4799C26.4582 26.4799 26.1918 26.5329 25.9433 26.6359C25.6947 26.7388 25.4689 26.8897 25.2787 27.08" stroke="black" stroke-opacity="0.2" stroke-width="0.705882" stroke-linecap="round"/>
<ellipse cx="22.6712" cy="26.5008" rx="1.15885" ry="1.44857" fill="#1C1D1F"/>
<ellipse cx="22.6712" cy="26.5008" rx="1.15885" ry="1.44857" fill="black" fill-opacity="0.2"/>
<ellipse cx="22.6712" cy="26.5008" rx="1.15885" ry="1.44857" fill="black" fill-opacity="0.2"/>
<ellipse cx="22.6712" cy="26.5008" rx="1.15885" ry="1.44857" fill="black" fill-opacity="0.2"/>
<ellipse cx="22.6712" cy="26.5008" rx="1.15885" ry="1.44857" fill="black" fill-opacity="0.2"/>
<ellipse cx="22.6712" cy="26.5008" rx="1.15885" ry="1.44857" fill="black" fill-opacity="0.2"/>
<ellipse cx="26.5824" cy="28.3839" rx="1.59342" ry="1.014" fill="#1C1D1F"/>
<ellipse cx="26.5824" cy="28.3839" rx="1.59342" ry="1.014" fill="black" fill-opacity="0.2"/>
<ellipse cx="26.5824" cy="28.3839" rx="1.59342" ry="1.014" fill="black" fill-opacity="0.2"/>
<ellipse cx="26.5824" cy="28.3839" rx="1.59342" ry="1.014" fill="black" fill-opacity="0.2"/>
<ellipse cx="26.5824" cy="28.3839" rx="1.59342" ry="1.014" fill="black" fill-opacity="0.2"/>
<ellipse cx="26.5824" cy="28.3839" rx="1.59342" ry="1.014" fill="black" fill-opacity="0.2"/>
<path d="M25.7647 32.1613C26.0485 32.3251 26.3618 32.4315 26.6868 32.4743C27.0117 32.5171 27.3419 32.4954 27.6584 32.4106C27.975 32.3258 28.2718 32.1794 28.5318 31.9799C28.7918 31.7804 29.01 31.5316 29.1738 31.2478" stroke="#1C1D1F" stroke-width="0.705882" stroke-linecap="round"/>
<path d="M25.7647 32.1613C26.0485 32.3251 26.3618 32.4315 26.6868 32.4743C27.0117 32.5171 27.3419 32.4954 27.6584 32.4106C27.975 32.3258 28.2718 32.1794 28.5318 31.9799C28.7918 31.7804 29.01 31.5316 29.1738 31.2478" stroke="black" stroke-opacity="0.2" stroke-width="0.705882" stroke-linecap="round"/>
<path d="M25.7647 32.1613C26.0485 32.3251 26.3618 32.4315 26.6868 32.4743C27.0117 32.5171 27.3419 32.4954 27.6584 32.4106C27.975 32.3258 28.2718 32.1794 28.5318 31.9799C28.7918 31.7804 29.01 31.5316 29.1738 31.2478" stroke="black" stroke-opacity="0.2" stroke-width="0.705882" stroke-linecap="round"/>
<path d="M25.7647 32.1613C26.0485 32.3251 26.3618 32.4315 26.6868 32.4743C27.0117 32.5171 27.3419 32.4954 27.6584 32.4106C27.975 32.3258 28.2718 32.1794 28.5318 31.9799C28.7918 31.7804 29.01 31.5316 29.1738 31.2478" stroke="black" stroke-opacity="0.2" stroke-width="0.705882" stroke-linecap="round"/>
<path d="M25.7647 32.1613C26.0485 32.3251 26.3618 32.4315 26.6868 32.4743C27.0117 32.5171 27.3419 32.4954 27.6584 32.4106C27.975 32.3258 28.2718 32.1794 28.5318 31.9799C28.7918 31.7804 29.01 31.5316 29.1738 31.2478" stroke="black" stroke-opacity="0.2" stroke-width="0.705882" stroke-linecap="round"/>
<path d="M25.7647 32.1613C26.0485 32.3251 26.3618 32.4315 26.6868 32.4743C27.0117 32.5171 27.3419 32.4954 27.6584 32.4106C27.975 32.3258 28.2718 32.1794 28.5318 31.9799C28.7918 31.7804 29.01 31.5316 29.1738 31.2478" stroke="black" stroke-opacity="0.2" stroke-width="0.705882" stroke-linecap="round"/>
</g>
</g>
<defs>
<filter id="filter0_d_1457_11887" x="0.0734863" y="0.281616" width="62.5046" height="62.5044" filterUnits="userSpaceOnUse" color-interpolation-filters="sRGB">
<feFlood flood-opacity="0" result="BackgroundImageFix"/>
<feColorMatrix in="SourceAlpha" type="matrix" values="0 0 0 0 0 0 0 0 0 0 0 0 0 0 0 0 0 0 127 0" result="hardAlpha"/>
<feOffset dx="1.41176" dy="1.41176"/>
<feGaussianBlur stdDeviation="0.705882"/>
<feComposite in2="hardAlpha" operator="out"/>
<feColorMatrix type="matrix" values="0 0 0 0 0 0 0 0 0 0 0 0 0 0 0 0 0 0 0.1 0"/>
<feBlend mode="normal" in2="BackgroundImageFix" result="effect1_dropShadow_1457_11887"/>
<feBlend mode="normal" in="SourceGraphic" in2="effect1_dropShadow_1457_11887" result="shape"/>
</filter>
</defs>
</svg>
