<svg width="24" height="24" viewBox="0 0 24 24" fill="none" xmlns="http://www.w3.org/2000/svg">
<g id="Property 1=report, Property 2=default">
<path id="Vector" fill-rule="evenodd" clip-rule="evenodd" d="M13.3163 3.35183C12.9187 3.12161 12.4637 3 12 3C11.5363 3 11.0813 3.12161 10.6837 3.35183L3.24186 7.66023C2.8631 7.87954 2.54964 8.18974 2.33202 8.56065C2.11439 8.93155 2 9.3505 2 9.77672V19.5316C2 20.1863 2.26952 20.8141 2.74926 21.277C3.22901 21.7399 3.87968 22 4.55814 22H19.4419C20.1203 22 20.771 21.7399 21.2507 21.277C21.7305 20.8141 22 20.1863 22 19.5316V9.77672C22 9.3505 21.8856 8.93155 21.668 8.56065C21.4504 8.18974 21.1369 7.87954 20.7581 7.66023L13.3163 3.35183ZM7.74884 11.7999C7.67401 11.7457 7.58866 11.7066 7.49786 11.6849C7.40706 11.6632 7.31267 11.6593 7.22029 11.6735C7.12791 11.6877 7.03944 11.7197 6.96013 11.7676C6.88082 11.8155 6.8123 11.8782 6.75864 11.9522C6.70498 12.0261 6.66728 12.1097 6.64777 12.198C6.62827 12.2862 6.62736 12.3774 6.6451 12.466C6.66285 12.5547 6.69888 12.6389 6.75106 12.7138C6.80324 12.7888 6.8705 12.8528 6.94884 12.9021L11.6 16.0436C11.7172 16.1228 11.8569 16.1653 12 16.1653C12.1431 16.1653 12.2828 16.1228 12.4 16.0436L17.0512 12.9021C17.1295 12.8528 17.1968 12.7888 17.2489 12.7138C17.3011 12.6389 17.3372 12.5547 17.3549 12.466C17.3726 12.3774 17.3717 12.2862 17.3522 12.198C17.3327 12.1097 17.295 12.0261 17.2414 11.9522C17.1877 11.8782 17.1192 11.8155 17.0399 11.7676C16.9606 11.7197 16.8721 11.6877 16.7797 11.6735C16.6873 11.6593 16.5929 11.6632 16.5021 11.6849C16.4113 11.7066 16.326 11.7457 16.2512 11.7999L12 14.6712L7.74884 11.7999Z" fill="currentColor"/>
</g>
</svg>
