<svg width="16" height="16" viewBox="0 0 16 16" fill="none" xmlns="http://www.w3.org/2000/svg">
<g id="&#235;&#161;&#156;&#234;&#184;&#176;bg">
<path id="Union" fill-rule="evenodd" clip-rule="evenodd" d="M9.98056 3.21849V1.98937L9.98058 1.98058L9.98056 1.9718V1.94185H9.98021C9.95957 0.86588 9.0809 4.72483e-08 8 0C6.91909 -4.72464e-08 6.04042 0.86588 6.01979 1.94185H6.0194V3.21833L5.15676 2.35569L5.14411 2.34294L5.13136 2.3303L5.11665 2.31559L5.11645 2.3158C4.34103 1.56958 3.10746 1.57863 2.34315 2.34294C1.57884 3.10725 1.56979 4.34082 2.31601 5.11624L2.31569 5.11656L3.21867 6.01954H1.98926L1.98058 6.01952L1.97191 6.01954H1.94174V6.01989C0.86582 6.04059 0 6.91923 0 8.0001C0 9.08097 0.86582 9.95961 1.94174 9.98031V9.9807H3.21835L2.31561 10.8834L2.31593 10.8838C1.56971 11.6592 1.57876 12.8928 2.34307 13.6571C3.10738 14.4214 4.34095 14.4304 5.11637 13.6842L5.11658 13.6844L5.13135 13.6696L5.14403 13.6571L5.15661 13.6444L6.0194 12.7816V14.0194L6.01939 14.0584H6.01977C6.04052 15.1342 6.91915 16 7.99998 16C9.08081 16 9.95943 15.1342 9.98018 14.0584H9.98056V14.0214L9.98056 14.0194L9.98056 14.0174V12.7814L10.8833 13.6842L10.8837 13.6839C11.6591 14.4301 12.8927 14.421 13.657 13.6567C14.4213 12.8924 14.4303 11.6589 13.6841 10.8834L13.6843 10.8833L13.6722 10.8711L13.657 10.8557L13.6416 10.8405L12.7818 9.9807H14.0194H14.0582V9.98033C15.1342 9.95963 16 9.08099 16 8.00012C16 6.91925 15.1342 6.04061 14.0582 6.01991V6.01954H14.0194H12.7814L13.6464 5.1546L13.6569 5.14419L13.6673 5.13371L13.6842 5.11675L13.684 5.11653C14.4302 4.34111 14.4212 3.10754 13.6569 2.34323C12.8926 1.57892 11.659 1.56987 10.8836 2.31608L10.8833 2.31578L9.98056 3.21849Z" fill="#474C52"/>
</g>
</svg>
