<svg width="48" height="24" viewBox="0 0 48 24" fill="none" xmlns="http://www.w3.org/2000/svg">
<path fill-rule="evenodd" clip-rule="evenodd" d="M27.7721 8.39946C27.2849 8.77837 27 9.36099 27 9.97817V20C27 20.5304 27.2107 21.0391 27.5858 21.4142C27.9609 21.7893 28.4696 22 29 22H34V17C34 16.4477 34.4477 16 35 16H37C37.5523 16 38 16.4477 38 17V22H43C43.5304 22 44.0391 21.7893 44.4142 21.4142C44.7893 21.0391 45 20.5304 45 20V9.97817C45 9.36099 44.7151 8.77838 44.2279 8.39946L37.2279 2.95502C36.5057 2.39329 35.4943 2.39329 34.7721 2.95502L27.7721 8.39946Z" fill="#CACDD2"/>
<path fill-rule="evenodd" clip-rule="evenodd" d="M3.77212 8.39946C3.28495 8.77837 3 9.36099 3 9.97817V20C3 20.5304 3.21071 21.0391 3.58579 21.4142C3.96086 21.7893 4.46957 22 5 22H10V17C10 16.4477 10.4477 16 11 16H13C13.5523 16 14 16.4477 14 17V22H19C19.5304 22 20.0391 21.7893 20.4142 21.4142C20.7893 21.0391 21 20.5304 21 20V9.97817C21 9.36099 20.7151 8.77838 20.2279 8.39946L13.2279 2.95502C12.5057 2.39329 11.4943 2.39329 10.7721 2.95502L3.77212 8.39946Z" fill="#27282C"/>
</svg>
