<svg width="48" height="24" viewBox="0 0 48 24" fill="none" xmlns="http://www.w3.org/2000/svg">
<path fill-rule="evenodd" clip-rule="evenodd" d="M13.3163 3.35183C12.9187 3.12161 12.4637 3 12 3C11.5363 3 11.0813 3.12161 10.6837 3.35183L3.24186 7.66023C2.8631 7.87954 2.54964 8.18974 2.33202 8.56065C2.11439 8.93155 2 9.3505 2 9.77672V19.5316C2 20.1863 2.26952 20.8141 2.74926 21.277C3.22901 21.7399 3.87968 22 4.55814 22H19.4419C20.1203 22 20.771 21.7399 21.2507 21.277C21.7305 20.8141 22 20.1863 22 19.5316V9.77672C22 9.3505 21.8856 8.93155 21.668 8.56065C21.4504 8.18974 21.1369 7.87954 20.7581 7.66023L13.3163 3.35183ZM7.74884 11.7999C7.67401 11.7457 7.58866 11.7066 7.49786 11.6849C7.40706 11.6632 7.31267 11.6593 7.22029 11.6735C7.12791 11.6877 7.03944 11.7197 6.96013 11.7676C6.88082 11.8155 6.8123 11.8782 6.75864 11.9522C6.70498 12.0261 6.66728 12.1097 6.64777 12.198C6.62827 12.2862 6.62736 12.3774 6.6451 12.466C6.66285 12.5547 6.69888 12.6389 6.75106 12.7138C6.80324 12.7888 6.8705 12.8528 6.94884 12.9021L11.6 16.0436C11.7172 16.1228 11.8569 16.1653 12 16.1653C12.1431 16.1653 12.2828 16.1228 12.4 16.0436L17.0512 12.9021C17.1295 12.8528 17.1968 12.7888 17.2489 12.7138C17.3011 12.6389 17.3372 12.5547 17.3549 12.466C17.3726 12.3774 17.3717 12.2862 17.3522 12.198C17.3327 12.1097 17.295 12.0261 17.2414 11.9522C17.1877 11.8782 17.1192 11.8155 17.0399 11.7676C16.9606 11.7197 16.8721 11.6877 16.7797 11.6735C16.6873 11.6593 16.5929 11.6632 16.5021 11.6849C16.4113 11.7066 16.326 11.7457 16.2512 11.7999L12 14.6712L7.74884 11.7999Z" fill="#27282C"/>
<path fill-rule="evenodd" clip-rule="evenodd" d="M37.3163 3.35183C36.9187 3.12161 36.4637 3 36 3C35.5363 3 35.0813 3.12161 34.6837 3.35183L27.2419 7.66023C26.8631 7.87954 26.5496 8.18974 26.332 8.56065C26.1144 8.93155 26 9.3505 26 9.77672V19.5316C26 20.1863 26.2695 20.8141 26.7493 21.277C27.229 21.7399 27.8797 22 28.5581 22H43.4419C44.1203 22 44.771 21.7399 45.2507 21.277C45.7305 20.8141 46 20.1863 46 19.5316V9.77672C46 9.3505 45.8856 8.93155 45.668 8.56065C45.4504 8.18974 45.1369 7.87954 44.7581 7.66023L37.3163 3.35183ZM31.7488 11.7999C31.674 11.7457 31.5887 11.7066 31.4979 11.6849C31.4071 11.6632 31.3127 11.6593 31.2203 11.6735C31.1279 11.6877 31.0394 11.7197 30.9601 11.7676C30.8808 11.8155 30.8123 11.8782 30.7586 11.9522C30.705 12.0261 30.6673 12.1097 30.6478 12.198C30.6283 12.2862 30.6274 12.3774 30.6451 12.466C30.6628 12.5547 30.6989 12.6389 30.7511 12.7138C30.8032 12.7888 30.8705 12.8528 30.9488 12.9021L35.6 16.0436C35.7172 16.1228 35.8569 16.1653 36 16.1653C36.1431 16.1653 36.2828 16.1228 36.4 16.0436L41.0512 12.9021C41.1295 12.8528 41.1968 12.7888 41.2489 12.7138C41.3011 12.6389 41.3372 12.5547 41.3549 12.466C41.3726 12.3774 41.3717 12.2862 41.3522 12.198C41.3327 12.1097 41.295 12.0261 41.2414 11.9522C41.1877 11.8782 41.1192 11.8155 41.0399 11.7676C40.9606 11.7197 40.8721 11.6877 40.7797 11.6735C40.6873 11.6593 40.5929 11.6632 40.5021 11.6849C40.4113 11.7066 40.326 11.7457 40.2512 11.7999L36 14.6712L31.7488 11.7999Z" fill="#CACDD2"/>
</svg>
