<svg width="48" height="24" viewBox="0 0 48 24" fill="none" xmlns="http://www.w3.org/2000/svg">
<circle cx="12" cy="8" r="4" fill="#27282C"/>
<path d="M2.5 20.5C2.5 16.3579 5.85786 13 10 13H14C18.1421 13 21.5 16.3579 21.5 20.5V20.5C21.5 21.3284 20.8284 22 20 22H4C3.17157 22 2.5 21.3284 2.5 20.5V20.5Z" fill="#27282C"/>
<circle cx="36" cy="8" r="4" fill="#CACDD2"/>
<path d="M26.5 20.5C26.5 16.3579 29.8579 13 34 13H38C42.1421 13 45.5 16.3579 45.5 20.5V20.5C45.5 21.3284 44.8284 22 44 22H28C27.1716 22 26.5 21.3284 26.5 20.5V20.5Z" fill="#CACDD2"/>
</svg>
