<svg width="23" height="23" viewBox="0 0 23 23" fill="none" xmlns="http://www.w3.org/2000/svg">
<path id="Vector" d="M1.00253 22.0007C0.74253 22.0007 0.482508 21.9007 0.292508 21.7107C0.0425084 21.4607 -0.0574709 21.0907 0.0325291 20.7407L1.53253 15.2407C1.58253 15.0707 1.66251 14.9208 1.79251 14.8008L15.2625 1.33071C15.6025 0.930706 16.0325 0.610765 16.4925 0.390765C16.9725 0.160765 17.4825 0.0307499 18.0125 0.000749858C18.5825 -0.00925014 19.1125 0.0807694 19.5925 0.270769C20.0725 0.450769 20.5225 0.750755 20.9025 1.13075C21.2825 1.51075 21.5725 1.96071 21.7625 2.46071C21.9525 2.94071 22.0425 3.48077 22.0125 4.02077C21.9825 4.55077 21.8525 5.06079 21.6125 5.54079C21.3625 6.03079 21.0325 6.44078 20.6225 6.78078L18.7625 8.65077C18.7625 8.65077 18.7225 8.70072 18.7025 8.72072C18.6825 8.74072 18.6625 8.76078 18.6325 8.78078L7.20251 20.2207C7.08251 20.3407 6.92251 20.4307 6.76251 20.4807L1.26251 21.9807C1.17251 22.0007 1.08253 22.0208 1.00253 22.0208V22.0007ZM3.40252 16.0208L2.43252 19.5807L5.99252 18.6107L16.6025 8.00075L14.0125 5.41078L3.41253 16.0208H3.40252ZM15.4225 4.00075L18.0125 6.59072L19.3025 5.3008C19.5725 5.0708 19.7325 4.87077 19.8525 4.65077C19.9625 4.42077 20.0325 4.17079 20.0425 3.92079C20.0525 3.67079 20.0125 3.41069 19.9225 3.19069C19.8325 2.95069 19.6925 2.7408 19.5025 2.5508C19.3125 2.3608 19.1025 2.23076 18.8725 2.14076C18.6325 2.04076 18.3625 1.99076 18.1025 2.01076C17.8625 2.02076 17.6025 2.0907 17.3725 2.2007C17.1525 2.3107 16.9425 2.47079 16.7725 2.67079C16.7525 2.69079 16.7325 2.71073 16.7225 2.73073L15.4325 4.02077L15.4225 4.00075Z" fill="white"/>
</svg>
