<svg width="8" height="14" viewBox="0 0 8 14" fill="none" xmlns="http://www.w3.org/2000/svg">
<g id="Vector">
<path d="M7.00252 13.9925C6.74252 13.9925 6.4925 13.8925 6.2925 13.7025L0.2925 7.7025C-0.0975 7.3125 -0.0975 6.6825 0.2925 6.2925L6.2925 0.2925C6.6825 -0.0975 7.3125 -0.0975 7.7025 0.2925C8.0925 0.6825 8.0925 1.3125 7.7025 1.7025L2.41253 6.99251L7.7025 12.2825C8.0925 12.6725 8.0925 13.3025 7.7025 13.6925C7.5025 13.8925 7.25251 13.9825 6.99251 13.9825L7.00252 13.9925Z" fill="#1C1D1F"/>
<path d="M7.00252 13.9925C6.74252 13.9925 6.4925 13.8925 6.2925 13.7025L0.2925 7.7025C-0.0975 7.3125 -0.0975 6.6825 0.2925 6.2925L6.2925 0.2925C6.6825 -0.0975 7.3125 -0.0975 7.7025 0.2925C8.0925 0.6825 8.0925 1.3125 7.7025 1.7025L2.41253 6.99251L7.7025 12.2825C8.0925 12.6725 8.0925 13.3025 7.7025 13.6925C7.5025 13.8925 7.25251 13.9825 6.99251 13.9825L7.00252 13.9925Z" fill="black" fill-opacity="0.2"/>
<path d="M7.00252 13.9925C6.74252 13.9925 6.4925 13.8925 6.2925 13.7025L0.2925 7.7025C-0.0975 7.3125 -0.0975 6.6825 0.2925 6.2925L6.2925 0.2925C6.6825 -0.0975 7.3125 -0.0975 7.7025 0.2925C8.0925 0.6825 8.0925 1.3125 7.7025 1.7025L2.41253 6.99251L7.7025 12.2825C8.0925 12.6725 8.0925 13.3025 7.7025 13.6925C7.5025 13.8925 7.25251 13.9825 6.99251 13.9825L7.00252 13.9925Z" fill="black" fill-opacity="0.2"/>
<path d="M7.00252 13.9925C6.74252 13.9925 6.4925 13.8925 6.2925 13.7025L0.2925 7.7025C-0.0975 7.3125 -0.0975 6.6825 0.2925 6.2925L6.2925 0.2925C6.6825 -0.0975 7.3125 -0.0975 7.7025 0.2925C8.0925 0.6825 8.0925 1.3125 7.7025 1.7025L2.41253 6.99251L7.7025 12.2825C8.0925 12.6725 8.0925 13.3025 7.7025 13.6925C7.5025 13.8925 7.25251 13.9825 6.99251 13.9825L7.00252 13.9925Z" fill="black" fill-opacity="0.2"/>
<path d="M7.00252 13.9925C6.74252 13.9925 6.4925 13.8925 6.2925 13.7025L0.2925 7.7025C-0.0975 7.3125 -0.0975 6.6825 0.2925 6.2925L6.2925 0.2925C6.6825 -0.0975 7.3125 -0.0975 7.7025 0.2925C8.0925 0.6825 8.0925 1.3125 7.7025 1.7025L2.41253 6.99251L7.7025 12.2825C8.0925 12.6725 8.0925 13.3025 7.7025 13.6925C7.5025 13.8925 7.25251 13.9825 6.99251 13.9825L7.00252 13.9925Z" fill="black" fill-opacity="0.2"/>
<path d="M7.00252 13.9925C6.74252 13.9925 6.4925 13.8925 6.2925 13.7025L0.2925 7.7025C-0.0975 7.3125 -0.0975 6.6825 0.2925 6.2925L6.2925 0.2925C6.6825 -0.0975 7.3125 -0.0975 7.7025 0.2925C8.0925 0.6825 8.0925 1.3125 7.7025 1.7025L2.41253 6.99251L7.7025 12.2825C8.0925 12.6725 8.0925 13.3025 7.7025 13.6925C7.5025 13.8925 7.25251 13.9825 6.99251 13.9825L7.00252 13.9925Z" fill="black" fill-opacity="0.2"/>
</g>
</svg>
