<svg width="8" height="14" viewBox="0 0 8 14" fill="none" xmlns="http://www.w3.org/2000/svg">
<g id="Vector">
<path d="M1.00252 13.9825C0.742522 13.9825 0.4925 13.8825 0.2925 13.6925C-0.0975 13.3025 -0.0975 12.6725 0.2925 12.2825L5.58254 6.99251L0.2925 1.7025C-0.0975 1.3125 -0.0975 0.6825 0.2925 0.2925C0.6825 -0.0975 1.31253 -0.0975 1.70253 0.2925L7.70253 6.2925C8.09253 6.6825 8.09253 7.3125 7.70253 7.7025L1.70253 13.7025C1.50253 13.9025 1.25251 13.9925 0.992512 13.9925L1.00252 13.9825Z" fill="#1C1D1F"/>
<path d="M1.00252 13.9825C0.742522 13.9825 0.4925 13.8825 0.2925 13.6925C-0.0975 13.3025 -0.0975 12.6725 0.2925 12.2825L5.58254 6.99251L0.2925 1.7025C-0.0975 1.3125 -0.0975 0.6825 0.2925 0.2925C0.6825 -0.0975 1.31253 -0.0975 1.70253 0.2925L7.70253 6.2925C8.09253 6.6825 8.09253 7.3125 7.70253 7.7025L1.70253 13.7025C1.50253 13.9025 1.25251 13.9925 0.992512 13.9925L1.00252 13.9825Z" fill="black" fill-opacity="0.2"/>
<path d="M1.00252 13.9825C0.742522 13.9825 0.4925 13.8825 0.2925 13.6925C-0.0975 13.3025 -0.0975 12.6725 0.2925 12.2825L5.58254 6.99251L0.2925 1.7025C-0.0975 1.3125 -0.0975 0.6825 0.2925 0.2925C0.6825 -0.0975 1.31253 -0.0975 1.70253 0.2925L7.70253 6.2925C8.09253 6.6825 8.09253 7.3125 7.70253 7.7025L1.70253 13.7025C1.50253 13.9025 1.25251 13.9925 0.992512 13.9925L1.00252 13.9825Z" fill="black" fill-opacity="0.2"/>
<path d="M1.00252 13.9825C0.742522 13.9825 0.4925 13.8825 0.2925 13.6925C-0.0975 13.3025 -0.0975 12.6725 0.2925 12.2825L5.58254 6.99251L0.2925 1.7025C-0.0975 1.3125 -0.0975 0.6825 0.2925 0.2925C0.6825 -0.0975 1.31253 -0.0975 1.70253 0.2925L7.70253 6.2925C8.09253 6.6825 8.09253 7.3125 7.70253 7.7025L1.70253 13.7025C1.50253 13.9025 1.25251 13.9925 0.992512 13.9925L1.00252 13.9825Z" fill="black" fill-opacity="0.2"/>
<path d="M1.00252 13.9825C0.742522 13.9825 0.4925 13.8825 0.2925 13.6925C-0.0975 13.3025 -0.0975 12.6725 0.2925 12.2825L5.58254 6.99251L0.2925 1.7025C-0.0975 1.3125 -0.0975 0.6825 0.2925 0.2925C0.6825 -0.0975 1.31253 -0.0975 1.70253 0.2925L7.70253 6.2925C8.09253 6.6825 8.09253 7.3125 7.70253 7.7025L1.70253 13.7025C1.50253 13.9025 1.25251 13.9925 0.992512 13.9925L1.00252 13.9825Z" fill="black" fill-opacity="0.2"/>
<path d="M1.00252 13.9825C0.742522 13.9825 0.4925 13.8825 0.2925 13.6925C-0.0975 13.3025 -0.0975 12.6725 0.2925 12.2825L5.58254 6.99251L0.2925 1.7025C-0.0975 1.3125 -0.0975 0.6825 0.2925 0.2925C0.6825 -0.0975 1.31253 -0.0975 1.70253 0.2925L7.70253 6.2925C8.09253 6.6825 8.09253 7.3125 7.70253 7.7025L1.70253 13.7025C1.50253 13.9025 1.25251 13.9925 0.992512 13.9925L1.00252 13.9825Z" fill="black" fill-opacity="0.2"/>
</g>
</svg>
