<svg width="36" height="36" viewBox="0 0 36 36" fill="none" xmlns="http://www.w3.org/2000/svg">
<rect x="0.75" y="0.75" width="34.5" height="34.5" rx="17.25" fill="#F7F8FA"/>
<rect x="0.75" y="0.75" width="34.5" height="34.5" rx="17.25" stroke="#CACDD2" stroke-width="1.5"/>
<path d="M23.1429 18.8571H18.8571V23.1429C18.8571 23.3702 18.7668 23.5882 18.6061 23.7489C18.4453 23.9097 18.2273 24 18 24C17.7727 24 17.5547 23.9097 17.3939 23.7489C17.2332 23.5882 17.1429 23.3702 17.1429 23.1429V18.8571H12.8571C12.6298 18.8571 12.4118 18.7668 12.2511 18.6061C12.0903 18.4453 12 18.2273 12 18C12 17.7727 12.0903 17.5547 12.2511 17.3939C12.4118 17.2332 12.6298 17.1429 12.8571 17.1429H17.1429V12.8571C17.1429 12.6298 17.2332 12.4118 17.3939 12.2511C17.5547 12.0903 17.7727 12 18 12C18.2273 12 18.4453 12.0903 18.6061 12.2511C18.7668 12.4118 18.8571 12.6298 18.8571 12.8571V17.1429H23.1429C23.3702 17.1429 23.5882 17.2332 23.7489 17.3939C23.9097 17.5547 24 17.7727 24 18C24 18.2273 23.9097 18.4453 23.7489 18.6061C23.5882 18.7668 23.3702 18.8571 23.1429 18.8571Z" fill="#CACDD2"/>
</svg>
