<svg width="20" height="40" viewBox="0 0 20 40" fill="none" xmlns="http://www.w3.org/2000/svg">
<path d="M10 40C15.523 40 20 35.523 20 30C20 24.477 15.523 20 10 20C4.477 20 0 24.477 0 30C0 35.523 4.477 40 10 40Z" fill="#EAEBED"/>
<path d="M7 30L9 32L13 28" stroke="white" stroke-width="1.5" stroke-linecap="round" stroke-linejoin="round"/>
<path d="M10 20C15.523 20 20 15.523 20 10C20 4.477 15.523 0 10 0C4.477 0 0 4.477 0 10C0 15.523 4.477 20 10 20Z" fill="#1C1D1F"/>
<path d="M10 20C15.523 20 20 15.523 20 10C20 4.477 15.523 0 10 0C4.477 0 0 4.477 0 10C0 15.523 4.477 20 10 20Z" fill="black" fill-opacity="0.2"/>
<path d="M10 20C15.523 20 20 15.523 20 10C20 4.477 15.523 0 10 0C4.477 0 0 4.477 0 10C0 15.523 4.477 20 10 20Z" fill="black" fill-opacity="0.2"/>
<path d="M10 20C15.523 20 20 15.523 20 10C20 4.477 15.523 0 10 0C4.477 0 0 4.477 0 10C0 15.523 4.477 20 10 20Z" fill="black" fill-opacity="0.2"/>
<path d="M10 20C15.523 20 20 15.523 20 10C20 4.477 15.523 0 10 0C4.477 0 0 4.477 0 10C0 15.523 4.477 20 10 20Z" fill="black" fill-opacity="0.2"/>
<path d="M10 20C15.523 20 20 15.523 20 10C20 4.477 15.523 0 10 0C4.477 0 0 4.477 0 10C0 15.523 4.477 20 10 20Z" fill="black" fill-opacity="0.2"/>
<path d="M7 10L9 12L13 8" stroke="white" stroke-width="1.5" stroke-linecap="round" stroke-linejoin="round"/>
</svg>
