<svg width="24" height="24" viewBox="0 0 24 24" fill="none" xmlns="http://www.w3.org/2000/svg">
<g id="24">
<g id="Vector">
<path d="M15.0025 18.9925C14.7425 18.9925 14.4925 18.8925 14.2925 18.7025L8.2925 12.7025C7.9025 12.3125 7.9025 11.6825 8.2925 11.2925L14.2925 5.2925C14.6825 4.9025 15.3125 4.9025 15.7025 5.2925C16.0925 5.6825 16.0925 6.3125 15.7025 6.7025L10.4125 11.9925L15.7025 17.2825C16.0925 17.6725 16.0925 18.3025 15.7025 18.6925C15.5025 18.8925 15.2525 18.9825 14.9925 18.9825L15.0025 18.9925Z" fill="#1C1D1F"/>
<path d="M15.0025 18.9925C14.7425 18.9925 14.4925 18.8925 14.2925 18.7025L8.2925 12.7025C7.9025 12.3125 7.9025 11.6825 8.2925 11.2925L14.2925 5.2925C14.6825 4.9025 15.3125 4.9025 15.7025 5.2925C16.0925 5.6825 16.0925 6.3125 15.7025 6.7025L10.4125 11.9925L15.7025 17.2825C16.0925 17.6725 16.0925 18.3025 15.7025 18.6925C15.5025 18.8925 15.2525 18.9825 14.9925 18.9825L15.0025 18.9925Z" fill="black" fill-opacity="0.2"/>
<path d="M15.0025 18.9925C14.7425 18.9925 14.4925 18.8925 14.2925 18.7025L8.2925 12.7025C7.9025 12.3125 7.9025 11.6825 8.2925 11.2925L14.2925 5.2925C14.6825 4.9025 15.3125 4.9025 15.7025 5.2925C16.0925 5.6825 16.0925 6.3125 15.7025 6.7025L10.4125 11.9925L15.7025 17.2825C16.0925 17.6725 16.0925 18.3025 15.7025 18.6925C15.5025 18.8925 15.2525 18.9825 14.9925 18.9825L15.0025 18.9925Z" fill="black" fill-opacity="0.2"/>
<path d="M15.0025 18.9925C14.7425 18.9925 14.4925 18.8925 14.2925 18.7025L8.2925 12.7025C7.9025 12.3125 7.9025 11.6825 8.2925 11.2925L14.2925 5.2925C14.6825 4.9025 15.3125 4.9025 15.7025 5.2925C16.0925 5.6825 16.0925 6.3125 15.7025 6.7025L10.4125 11.9925L15.7025 17.2825C16.0925 17.6725 16.0925 18.3025 15.7025 18.6925C15.5025 18.8925 15.2525 18.9825 14.9925 18.9825L15.0025 18.9925Z" fill="black" fill-opacity="0.2"/>
<path d="M15.0025 18.9925C14.7425 18.9925 14.4925 18.8925 14.2925 18.7025L8.2925 12.7025C7.9025 12.3125 7.9025 11.6825 8.2925 11.2925L14.2925 5.2925C14.6825 4.9025 15.3125 4.9025 15.7025 5.2925C16.0925 5.6825 16.0925 6.3125 15.7025 6.7025L10.4125 11.9925L15.7025 17.2825C16.0925 17.6725 16.0925 18.3025 15.7025 18.6925C15.5025 18.8925 15.2525 18.9825 14.9925 18.9825L15.0025 18.9925Z" fill="black" fill-opacity="0.2"/>
<path d="M15.0025 18.9925C14.7425 18.9925 14.4925 18.8925 14.2925 18.7025L8.2925 12.7025C7.9025 12.3125 7.9025 11.6825 8.2925 11.2925L14.2925 5.2925C14.6825 4.9025 15.3125 4.9025 15.7025 5.2925C16.0925 5.6825 16.0925 6.3125 15.7025 6.7025L10.4125 11.9925L15.7025 17.2825C16.0925 17.6725 16.0925 18.3025 15.7025 18.6925C15.5025 18.8925 15.2525 18.9825 14.9925 18.9825L15.0025 18.9925Z" fill="black" fill-opacity="0.2"/>
</g>
</g>
</svg>
